# Blender v3.2.2 OBJ File: 'snooper.blend'
# www.blender.org
mtllib snooper_000009.mtl
o Cube.003
v -0.475212 0.734567 -0.122750
v -0.147423 0.000000 -0.322750
v -0.902152 0.000000 -0.322750
v -0.475212 0.000000 0.277250
vt 0.000000 0.000000
vt 0.000000 0.000000
vt 0.000000 0.000000
vt 0.000000 0.000000
vn -0.7512 0.5399 -0.3798
vn 0.0374 0.9993 -0.0013
vn 0.7612 0.4632 -0.4539
vn 0.0374 0.9993 -0.0014
vn 0.0423 0.4778 0.8774
vn 0.7612 0.4633 -0.4539
vn 0.0422 0.4778 0.8774
vn -0.7511 0.5400 -0.3797
usemtl Material.001
s off
f 3/1/1 1/2/2 2/3/3
f 1/2/4 4/4/5 2/3/6
f 4/4/7 1/2/2 3/1/8
o Cube
v 0.436058 0.670665 -0.900000
v 0.932739 0.728177 0.300000
v -0.557305 0.555641 0.900000
v -1.053986 0.498129 -0.300000
v -0.557305 0.555641 -0.900000
v 0.932739 0.728177 -0.300000
v 0.436058 0.670665 0.900000
v -1.053986 0.498129 0.300000
v -1.146006 1.292819 -0.300000
v 0.840720 1.522867 0.300000
v 0.344038 1.465355 -0.900000
v -0.649324 1.350331 0.900000
v -0.649324 1.350331 -0.900000
v 0.840720 1.522867 -0.300000
v 0.344038 1.465355 0.900000
v -1.146006 1.292819 0.300000
v -0.596552 1.763962 0.300000
v 0.198138 1.855982 0.300000
v 0.198138 1.855982 -0.300000
v -0.596552 1.763962 -0.300000
v -0.349314 0.831395 0.900000
v -0.261389 1.042913 0.900000
v 0.036620 1.077420 0.900000
v 0.169826 0.891508 0.900000
v 0.082630 0.680075 0.900000
v -0.215379 0.645568 0.900000
v -0.348586 0.831480 1.180000
v -0.261389 1.042913 1.180000
v 0.036620 1.077420 1.180000
v 0.170555 0.891592 1.180000
v 0.082630 0.680075 1.180000
v -0.215379 0.645568 1.180000
v -0.131593 1.001238 1.088129
v -0.557305 0.555641 -0.900000
v 0.436058 0.670665 -0.900000
v 0.436058 0.670665 -0.900000
vt 0.000000 0.000000
vt 0.000000 0.000000
vt 0.000000 0.000000
vt 0.000000 0.000000
vt 0.000000 0.000000
vt 0.000000 0.000000
vt 0.000000 0.000000
vt 0.000000 0.000000
vt 0.000000 0.000000
vt 0.000000 0.000000
vt 0.000000 0.000000
vt 0.000000 0.000000
vt 0.000000 0.000000
vt 0.000000 0.000000
vt 0.000000 0.000000
vt 0.000000 0.000000
vt 0.000000 0.000000
vt 0.000000 0.000000
vt 0.000000 0.000000
vt 0.000000 0.000000
vt 0.609375 0.140625
vt 0.390625 0.390625
vt 0.390625 0.140625
vt 0.000000 0.000000
vt 0.000000 0.000000
vt 0.000000 0.000000
vt 0.000000 0.000000
vt 0.000000 0.000000
vt 0.000000 0.000000
vt 0.000000 0.000000
vt 0.000000 0.000000
vt 0.000000 0.000000
vt 0.000000 0.000000
vt 0.000000 0.000000
vt 0.000000 0.000000
vt 1.000000 0.000000
vt 1.000000 1.000000
vt 0.000000 1.000000
vt 0.265625 0.265625
vt 0.609375 0.390625
vt 0.734375 0.265625
vn 0.4214 0.0488 0.9056
vn 0.9340 0.1082 0.3404
vn 0.8022 0.5194 0.2944
vn -0.4214 -0.0488 -0.9056
vn -0.9340 -0.1081 -0.3404
vn -0.8997 0.3224 -0.2944
vn 0.9340 0.1082 -0.3404
vn 0.8022 0.5195 -0.2944
vn -0.9340 -0.1082 -0.3404
vn -0.9340 -0.1081 0.3404
vn -0.8997 0.3224 0.2944
vn 0.4214 0.0488 -0.9056
vn 0.3216 0.4616 -0.8268
vn 0.4213 0.0488 -0.9056
vn -0.4213 -0.0488 -0.9056
vn -0.4186 0.3759 -0.8267
vn -0.9340 -0.1082 0.3404
vn -0.4214 -0.0488 0.9056
vn -0.4185 0.3759 0.8268
vn -0.3679 0.8930 0.2593
vn -0.8997 0.3223 0.2945
vn 0.8022 0.5194 0.2945
vn 0.1541 0.9534 0.2593
vn 0.3216 0.4616 0.8268
vn 0.1541 0.9534 -0.2593
vn 0.8022 0.5194 -0.2945
vn -0.8997 0.3223 -0.2945
vn -0.3679 0.8930 -0.2593
vn -0.4185 0.3759 -0.8268
vn -0.8996 0.3224 0.2945
vn 0.4775 -0.6334 0.6090
vn -0.4781 0.6329 0.6090
vn -0.3208 -0.7254 0.6090
vn 0.6027 -0.7980 -0.0007
vn -0.3207 -0.7254 0.6090
vn -0.4036 -0.9149 0.0000
vn 0.9933 0.1156 -0.0019
vn 0.4049 0.9143 0.0000
vn 0.3207 0.7257 0.6087
vn -0.9934 -0.1150 0.0011
vn -0.7845 -0.0909 0.6135
vn -0.4780 0.6330 0.6090
vn -0.7845 -0.0908 0.6135
vn 0.7861 0.0915 0.6113
vn 0.4049 0.9144 -0.0000
vn -0.6020 0.7985 0.0000
vn 0.4776 -0.6333 0.6090
vn 0.6027 -0.7980 -0.0008
vn -0.4037 -0.9149 0.0000
vn 0.4213 0.0488 0.9056
vn 0.3216 0.4616 0.8267
vn -0.4186 0.3759 0.8267
vn -0.4186 0.3759 -0.8268
vn 0.8022 0.5194 -0.2944
vn 0.9340 0.1081 -0.3404
vn 0.3216 0.4616 -0.8267
vn -0.4186 0.3759 0.8268
vn -0.4780 0.6329 0.6090
vn 0.4775 -0.6333 0.6090
vn -0.4781 0.6330 0.6090
vn -0.4213 -0.0488 0.9056
usemtl Material
s off
f 11/5/9 6/6/10 14/7/11
f 9/8/12 8/9/13 13/10/14
f 6/6/10 10/11/15 18/12/16
f 8/9/17 12/13/18 20/14/19
f 10/11/15 5/15/20 15/16/21
f 5/15/22 9/8/23 17/17/24
f 12/13/25 7/18/26 16/19/27
f 16/19/27 21/20/28 20/14/29
f 14/7/30 22/21/31 19/22/32
f 15/16/21 23/23/33 18/12/34
f 13/10/35 24/24/36 17/17/37
f 23/23/33 22/21/31 14/7/30
f 24/24/36 23/23/33 15/16/21
f 24/24/36 13/10/14 20/14/38
f 16/19/27 19/22/32 22/21/31
f 22/21/31 23/23/33 24/24/36
f 35/25/39 32/26/40 36/27/41
f 29/28/42 36/29/43 30/30/44
f 28/31/45 27/32/46 33/33/47
f 25/34/48 31/35/49 32/36/50
f 25/34/48 36/29/43 31/35/51
f 29/28/42 28/31/45 34/37/52
f 27/32/53 26/38/54 32/36/50
f 35/39/55 36/29/41 29/28/56
f 30/30/57 36/29/43 25/34/48
f 11/40/58 19/41/59 16/42/60
f 11/5/9 14/7/11 19/22/32
f 9/8/12 13/10/14 17/17/61
f 6/6/10 18/12/62 14/7/11
f 8/9/13 20/14/19 13/10/14
f 10/11/63 15/16/21 18/12/62
f 5/15/22 17/17/24 15/16/64
f 12/13/25 16/19/65 20/14/19
f 23/23/33 14/7/30 18/12/62
f 24/24/36 15/16/21 17/17/37
f 24/24/36 20/14/38 21/20/28
f 16/19/27 22/21/31 21/20/28
f 22/21/31 24/24/36 21/20/28
f 31/43/49 36/27/43 32/26/66
f 32/26/50 35/25/67 33/44/47
f 33/44/47 35/25/55 34/45/52
f 28/31/45 33/33/47 34/37/52
f 25/34/48 32/36/66 26/38/54
f 29/28/56 34/37/52 35/39/39
f 27/32/53 32/36/68 33/33/47
f 11/40/58 16/42/60 7/18/69
l 32 37
l 38 9
l 5 39
l 39 40
o Cube.001
v 0.475212 0.885727 0.399217
v 0.902152 0.140920 0.241579
v 0.147423 0.140920 0.241579
v 0.475212 0.175254 0.840596
vt 0.000000 0.000000
vt 0.000000 0.000000
vt 0.000000 0.000000
vt 0.000000 0.000000
vn -0.7612 0.4365 -0.4797
vn -0.0374 0.9976 -0.0585
vn 0.7512 0.5173 -0.4100
vn -0.0422 0.5273 0.8487
vn 0.7511 0.5174 -0.4100
vn -0.0423 0.5272 0.8487
vn -0.7612 0.4365 -0.4796
usemtl Material
s off
f 43/46/70 41/47/71 42/48/72
f 41/47/71 44/49/73 42/48/74
f 44/49/75 41/47/71 43/46/76
o Cube.002
v -0.475212 0.734567 -0.122750
v -0.147423 0.000000 -0.322750
v -0.902152 0.000000 -0.322750
v -0.475212 0.000000 0.277250
vt 0.000000 0.000000
vt 0.000000 0.000000
vt 0.000000 0.000000
vt 0.000000 0.000000
vn -0.7512 0.5399 -0.3798
vn 0.0374 0.9993 -0.0013
vn 0.7612 0.4632 -0.4539
vn 0.0374 0.9993 -0.0014
vn 0.0423 0.4778 0.8774
vn 0.7612 0.4633 -0.4539
vn 0.0422 0.4778 0.8774
vn -0.7511 0.5400 -0.3797
usemtl Material
s off
f 47/50/77 45/51/78 46/52/79
f 45/51/80 48/53/81 46/52/82
f 48/53/83 45/51/78 47/50/84
