# Blender v3.2.2 OBJ File: 'snooper.blend'
# www.blender.org
mtllib snooper_000002.mtl
o Cube.003
v -0.475212 0.734567 0.281319
v -0.147423 0.000000 0.081319
v -0.902152 0.000000 0.081319
v -0.475212 0.000000 0.681319
vt 0.000000 0.000000
vt 0.000000 0.000000
vt 0.000000 0.000000
vt 0.000000 0.000000
vn -0.7512 0.5399 -0.3798
vn 0.0374 0.9993 -0.0013
vn 0.7612 0.4632 -0.4539
vn 0.0374 0.9993 -0.0014
vn 0.0423 0.4778 0.8774
vn 0.7612 0.4633 -0.4539
vn 0.0422 0.4778 0.8774
vn -0.7511 0.5400 -0.3797
usemtl Material.001
s off
f 3/1/1 1/2/2 2/3/3
f 1/2/4 4/4/5 2/3/6
f 4/4/7 1/2/2 3/1/8
o Cube
v 0.515522 0.529479 -0.900000
v 1.015299 0.514542 0.300000
v -0.484031 0.559353 0.900000
v -0.983808 0.574290 -0.300000
v -0.484031 0.559353 -0.900000
v 1.015299 0.514542 -0.300000
v 0.515522 0.529479 0.900000
v -0.983808 0.574290 0.300000
v -0.959909 1.373934 -0.300000
v 1.039199 1.314185 0.300000
v 0.539422 1.329122 -0.900000
v -0.460132 1.358996 0.900000
v -0.460132 1.358996 -0.900000
v 1.039199 1.314185 -0.300000
v 0.539422 1.329122 0.900000
v -0.959909 1.373934 0.300000
v -0.348083 1.760644 0.300000
v 0.451560 1.736744 0.300000
v 0.451560 1.736744 -0.300000
v -0.348083 1.760644 -0.300000
v -0.238341 0.802122 0.900000
v -0.120744 0.998696 0.900000
v 0.179122 0.989734 0.900000
v 0.284035 0.786509 0.900000
v 0.167172 0.589913 0.900000
v -0.132694 0.598875 0.900000
v -0.237608 0.802100 1.180000
v -0.120744 0.998696 1.180000
v 0.179122 0.989734 1.180000
v 0.284769 0.786487 1.180000
v 0.167172 0.589913 1.180000
v -0.132694 0.598875 1.180000
v 0.001659 0.938685 1.088129
v -0.484031 0.559353 -0.900000
v 0.515522 0.529479 -0.900000
v 0.515522 0.529479 -0.900000
vt 0.000000 0.000000
vt 0.000000 0.000000
vt 0.000000 0.000000
vt 0.000000 0.000000
vt 0.000000 0.000000
vt 0.000000 0.000000
vt 0.000000 0.000000
vt 0.000000 0.000000
vt 0.000000 0.000000
vt 0.000000 0.000000
vt 0.000000 0.000000
vt 0.000000 0.000000
vt 0.000000 0.000000
vt 0.000000 0.000000
vt 0.000000 0.000000
vt 0.000000 0.000000
vt 0.000000 0.000000
vt 0.000000 0.000000
vt 0.000000 0.000000
vt 0.000000 0.000000
vt 0.609375 0.140625
vt 0.390625 0.390625
vt 0.390625 0.140625
vt 0.000000 0.000000
vt 0.000000 0.000000
vt 0.000000 0.000000
vt 0.000000 0.000000
vt 0.000000 0.000000
vt 0.000000 0.000000
vt 0.000000 0.000000
vt 0.000000 0.000000
vt 0.000000 0.000000
vt 0.000000 0.000000
vt 0.000000 0.000000
vt 0.000000 0.000000
vt 1.000000 0.000000
vt 1.000000 1.000000
vt 0.000000 1.000000
vt 0.265625 0.265625
vt 0.609375 0.390625
vt 0.734375 0.265625
vn 0.4240 -0.0127 0.9056
vn 0.9398 -0.0281 0.3404
vn 0.8689 0.3979 0.2944
vn -0.4240 0.0127 -0.9056
vn -0.9398 0.0281 -0.3404
vn -0.8436 0.4491 -0.2944
vn 0.9399 -0.0281 0.3404
vn 0.9399 -0.0281 -0.3404
vn 0.8689 0.3980 -0.2944
vn -0.9399 0.0281 -0.3404
vn -0.9399 0.0281 0.3404
vn -0.8436 0.4491 0.2944
vn 0.9398 -0.0281 -0.3404
vn 0.4240 -0.0127 -0.9056
vn 0.3850 0.4102 -0.8268
vn 0.4240 -0.0126 -0.9056
vn -0.3598 0.4325 -0.8267
vn -0.9398 0.0281 0.3404
vn -0.4240 0.0127 0.9056
vn -0.3598 0.4325 0.8268
vn -0.2348 0.9368 0.2593
vn -0.8436 0.4491 0.2945
vn 0.8689 0.3979 0.2945
vn 0.2904 0.9211 0.2593
vn 0.3850 0.4102 0.8268
vn 0.2904 0.9211 -0.2593
vn 0.8689 0.3979 -0.2945
vn -0.8436 0.4491 -0.2945
vn -0.2348 0.9368 -0.2593
vn -0.3598 0.4325 -0.8268
vn 0.3849 0.4102 -0.8268
vn 0.3849 0.4102 0.8268
vn -0.2349 0.9368 -0.2593
vn 0.3809 -0.6958 0.6090
vn -0.3815 0.6954 0.6090
vn -0.4223 -0.6714 0.6090
vn 0.4809 -0.8768 -0.0007
vn -0.4222 -0.6714 0.6090
vn -0.5317 -0.8469 0.0000
vn 0.9996 -0.0293 -0.0019
vn 0.5329 0.8462 0.0000
vn 0.4223 0.6717 0.6087
vn -0.9996 0.0299 0.0011
vn -0.7894 0.0236 0.6135
vn -0.3814 0.6954 0.6090
vn 0.7910 -0.0231 0.6113
vn -0.4802 0.8772 0.0000
vn 0.3809 -0.6957 0.6090
vn 0.4809 -0.8768 -0.0008
vn 0.4240 -0.0126 0.9056
vn 0.3850 0.4102 0.8267
vn -0.3598 0.4325 0.8267
vn -0.4240 0.0126 -0.9056
vn 0.8689 0.3979 -0.2944
vn 0.3850 0.4102 -0.8267
vn -0.2349 0.9368 0.2593
vn -0.7894 0.0235 0.6135
vn 0.3810 -0.6957 0.6090
vn 0.7910 -0.0232 0.6113
vn -0.4802 0.8771 0.0000
usemtl Material
s off
f 11/5/9 6/6/10 14/7/11
f 9/8/12 8/9/13 13/10/14
f 6/6/15 10/11/16 18/12/17
f 8/9/18 12/13/19 20/14/20
f 10/11/21 5/15/22 15/16/23
f 5/15/24 9/8/12 17/17/25
f 12/13/26 7/18/27 16/19/28
f 16/19/28 21/20/29 20/14/30
f 14/7/31 22/21/32 19/22/33
f 15/16/23 23/23/34 18/12/35
f 13/10/36 24/24/37 17/17/38
f 23/23/34 22/21/32 14/7/31
f 24/24/37 23/23/34 15/16/39
f 24/24/37 13/10/14 20/14/30
f 16/19/28 19/22/40 22/21/32
f 22/21/32 23/23/34 24/24/41
f 35/25/42 32/26/43 36/27/44
f 29/28/45 36/29/46 30/30/47
f 28/31/48 27/32/49 33/33/50
f 25/34/51 31/35/52 32/36/53
f 25/34/51 36/29/44 31/35/52
f 29/28/45 28/31/48 34/37/54
f 27/32/49 26/38/55 32/36/53
f 35/39/56 36/29/44 29/28/57
f 30/30/47 36/29/44 25/34/51
f 11/40/58 19/41/59 16/42/60
f 11/5/9 14/7/11 19/22/33
f 9/8/61 13/10/14 17/17/38
f 6/6/15 18/12/62 14/7/11
f 8/9/18 20/14/20 13/10/14
f 10/11/21 15/16/23 18/12/62
f 5/15/24 17/17/25 15/16/63
f 12/13/26 16/19/28 20/14/20
f 23/23/34 14/7/31 18/12/62
f 24/24/37 15/16/23 17/17/38
f 24/24/37 20/14/30 21/20/29
f 16/19/28 22/21/32 21/20/64
f 22/21/32 24/24/37 21/20/29
f 31/43/65 36/27/44 32/26/53
f 32/26/53 35/25/42 33/44/50
f 33/44/50 35/25/66 34/45/67
f 28/31/48 33/33/50 34/37/54
f 25/34/51 32/36/43 26/38/68
f 29/28/57 34/37/67 35/39/42
f 27/32/49 32/36/43 33/33/50
f 11/40/58 16/42/60 7/18/27
l 32 37
l 38 9
l 5 39
l 39 40
o Cube.001
v 0.475212 0.806182 -0.218611
v 0.902152 0.106932 -0.519672
v 0.147423 0.106932 -0.519672
v 0.475212 0.022770 0.074396
vt 0.000000 0.000000
vt 0.000000 0.000000
vt 0.000000 0.000000
vt 0.000000 0.000000
vn -0.7612 0.5223 -0.3844
vn -0.0374 0.9896 0.1389
vn 0.7512 0.5879 -0.3003
vn -0.0374 0.9896 0.1388
vn -0.0422 0.3500 0.9358
vn 0.7511 0.5879 -0.3002
vn -0.0423 0.3500 0.9358
vn -0.7612 0.5224 -0.3844
usemtl Material
s off
f 43/46/69 41/47/70 42/48/71
f 41/47/72 44/49/73 42/48/74
f 44/49/75 41/47/72 43/46/76
o Cube.002
v -0.475212 0.734567 0.281319
v -0.147423 0.000000 0.081319
v -0.902152 0.000000 0.081319
v -0.475212 0.000000 0.681319
vt 0.000000 0.000000
vt 0.000000 0.000000
vt 0.000000 0.000000
vt 0.000000 0.000000
vn -0.7512 0.5399 -0.3798
vn 0.0374 0.9993 -0.0013
vn 0.7612 0.4632 -0.4539
vn 0.0374 0.9993 -0.0014
vn 0.0423 0.4778 0.8774
vn 0.7612 0.4633 -0.4539
vn 0.0422 0.4778 0.8774
vn -0.7511 0.5400 -0.3797
usemtl Material
s off
f 47/50/77 45/51/78 46/52/79
f 45/51/80 48/53/81 46/52/82
f 48/53/83 45/51/78 47/50/84
