# Blender v3.2.2 OBJ File: 'snooper.blend'
# www.blender.org
mtllib snooper_000020.mtl
o Cube.003
v -0.475212 0.829714 0.377717
v -0.147423 0.087106 0.210024
v -0.902152 0.087106 0.210024
v -0.475212 0.113339 0.809451
vt 0.000000 0.000000
vt 0.000000 0.000000
vt 0.000000 0.000000
vt 0.000000 0.000000
vn -0.7512 0.5228 -0.4030
vn 0.0374 0.9983 -0.0450
vn 0.7612 0.4429 -0.4737
vn 0.0423 0.5157 0.8557
vn 0.7612 0.4430 -0.4737
vn 0.0422 0.5157 0.8557
vn -0.7511 0.5229 -0.4030
usemtl Material.001
s off
f 3/1/1 1/2/2 2/3/3
f 1/2/2 4/4/4 2/3/5
f 4/4/6 1/2/2 3/1/7
o Cube
v 0.532452 0.546244 -0.900000
v 1.031444 0.514501 0.300000
v -0.465530 0.609732 0.900000
v -0.964522 0.641475 -0.300000
v -0.465530 0.609732 -0.900000
v 1.031444 0.514501 -0.300000
v 0.532452 0.546244 0.900000
v -0.964522 0.641475 0.300000
v -0.913732 1.439861 -0.300000
v 1.082233 1.312887 0.300000
v 0.583242 1.344630 -0.900000
v -0.414740 1.408118 0.900000
v -0.414740 1.408118 -0.900000
v 1.082233 1.312887 -0.300000
v 0.583242 1.344630 0.900000
v -0.913732 1.439861 0.300000
v -0.289242 1.805768 0.300000
v 0.509145 1.754978 0.300000
v 0.509145 1.754978 -0.300000
v -0.289242 1.805768 -0.300000
v -0.211811 0.844097 0.900000
v -0.087667 1.036603 0.900000
v 0.211728 1.017557 0.900000
v 0.309744 0.810917 0.900000
v 0.186333 0.618364 0.900000
v -0.113062 0.637410 0.900000
v -0.211079 0.844050 1.180000
v -0.087667 1.036603 1.180000
v 0.211728 1.017557 1.180000
v 0.310476 0.810871 1.180000
v 0.186333 0.618364 1.180000
v -0.113062 0.637410 1.180000
v 0.032648 0.972507 1.088129
v -0.465530 0.609732 -0.900000
v 0.532452 0.546244 -0.900000
v 0.532452 0.546244 -0.900000
vt 0.000000 0.000000
vt 0.000000 0.000000
vt 0.000000 0.000000
vt 0.000000 0.000000
vt 0.000000 0.000000
vt 0.000000 0.000000
vt 0.000000 0.000000
vt 0.000000 0.000000
vt 0.000000 0.000000
vt 0.000000 0.000000
vt 0.000000 0.000000
vt 0.000000 0.000000
vt 0.000000 0.000000
vt 0.000000 0.000000
vt 0.000000 0.000000
vt 0.000000 0.000000
vt 0.000000 0.000000
vt 0.000000 0.000000
vt 0.000000 0.000000
vt 0.000000 0.000000
vt 0.609375 0.140625
vt 0.390625 0.390625
vt 0.390625 0.140625
vt 0.000000 0.000000
vt 0.000000 0.000000
vt 0.000000 0.000000
vt 0.000000 0.000000
vt 0.000000 0.000000
vt 0.000000 0.000000
vt 0.000000 0.000000
vt 0.000000 0.000000
vt 0.000000 0.000000
vt 0.000000 0.000000
vt 0.000000 0.000000
vt 0.000000 0.000000
vt 1.000000 0.000000
vt 1.000000 1.000000
vt 0.000000 1.000000
vt 0.265625 0.265625
vt 0.609375 0.390625
vt 0.734375 0.265625
vn 0.4233 -0.0269 0.9056
vn 0.9384 -0.0597 0.3404
vn 0.8818 0.3685 0.2944
vn -0.4233 0.0269 -0.9056
vn -0.9384 0.0597 -0.3404
vn -0.8280 0.4772 -0.2944
vn 0.9384 -0.0597 -0.3404
vn 0.8818 0.3685 -0.2944
vn -0.9384 0.0597 0.3404
vn -0.8280 0.4773 0.2944
vn 0.4233 -0.0269 -0.9056
vn 0.3985 0.3970 -0.8268
vn -0.3451 0.4443 -0.8267
vn -0.4233 0.0269 0.9056
vn -0.3450 0.4443 0.8268
vn -0.2032 0.9442 0.2593
vn -0.8280 0.4772 0.2945
vn 0.8818 0.3684 0.2945
vn 0.3212 0.9108 0.2593
vn 0.3985 0.3970 0.8268
vn 0.3212 0.9108 -0.2593
vn 0.8818 0.3684 -0.2945
vn -0.8280 0.4772 -0.2945
vn -0.2032 0.9442 -0.2593
vn -0.3450 0.4443 -0.8268
vn 0.8818 0.3685 0.2945
vn 0.3572 -0.7082 0.6090
vn -0.3579 0.7078 0.6090
vn -0.4447 -0.6568 0.6090
vn 0.4512 -0.8924 -0.0007
vn -0.4446 -0.6568 0.6090
vn -0.5599 -0.8285 0.0000
vn 0.9980 -0.0629 -0.0019
vn 0.5611 0.8277 0.0000
vn 0.4446 0.6571 0.6087
vn -0.9980 0.0635 0.0011
vn -0.7881 0.0501 0.6135
vn -0.3578 0.7079 0.6090
vn -0.7881 0.0502 0.6135
vn 0.4511 -0.8925 -0.0007
vn 0.7898 -0.0497 0.6113
vn 0.5611 0.8278 -0.0000
vn -0.4504 0.8928 0.0000
vn 0.3573 -0.7082 0.6090
vn 0.4512 -0.8924 -0.0008
vn 0.3986 0.3970 0.8267
vn -0.3450 0.4443 0.8267
vn 0.4233 -0.0270 0.9056
vn 0.3986 0.3970 0.8268
vn 0.3986 0.3970 -0.8268
vn -0.3450 0.4443 -0.8267
vn 0.3986 0.3970 -0.8267
vn -0.8280 0.4772 0.2944
vn 0.7898 -0.0498 0.6113
vn 0.4511 -0.8925 -0.0008
vn -0.3579 0.7079 0.6090
vn -0.3451 0.4443 0.8267
usemtl Material
s off
f 11/5/8 6/6/9 14/7/10
f 9/8/11 8/9/12 13/10/13
f 6/6/9 10/11/14 18/12/15
f 8/9/12 12/13/16 20/14/17
f 10/11/14 5/15/18 15/16/19
f 5/15/18 9/8/11 17/17/20
f 12/13/16 7/18/21 16/19/22
f 16/19/22 21/20/23 20/14/24
f 14/7/25 22/21/26 19/22/27
f 15/16/19 23/23/28 18/12/29
f 13/10/30 24/24/31 17/17/32
f 23/23/28 22/21/26 14/7/33
f 24/24/31 23/23/28 15/16/19
f 24/24/31 13/10/13 20/14/24
f 16/19/22 19/22/27 22/21/26
f 22/21/26 23/23/28 24/24/31
f 35/25/34 32/26/35 36/27/36
f 29/28/37 36/29/38 30/30/39
f 28/31/40 27/32/41 33/33/42
f 25/34/43 31/35/44 32/36/45
f 25/34/43 36/29/38 31/35/46
f 29/28/47 28/31/40 34/37/48
f 27/32/49 26/38/50 32/36/45
f 35/39/51 36/29/36 29/28/52
f 30/30/39 36/29/36 25/34/43
f 11/40/8 19/41/53 16/42/54
f 11/5/55 14/7/10 19/22/56
f 9/8/11 13/10/13 17/17/32
f 6/6/9 18/12/15 14/7/10
f 8/9/12 20/14/17 13/10/13
f 10/11/14 15/16/57 18/12/15
f 5/15/18 17/17/58 15/16/59
f 12/13/16 16/19/22 20/14/60
f 23/23/28 14/7/33 18/12/15
f 24/24/31 15/16/19 17/17/32
f 24/24/31 20/14/24 21/20/23
f 16/19/22 22/21/26 21/20/23
f 22/21/26 24/24/31 21/20/23
f 31/43/44 36/27/38 32/26/45
f 32/26/45 35/25/51 33/44/42
f 33/44/42 35/25/51 34/45/61
f 28/31/40 33/33/42 34/37/48
f 25/34/43 32/36/45 26/38/50
f 29/28/62 34/37/61 35/39/51
f 27/32/49 32/36/63 33/33/42
f 11/40/8 16/42/64 7/18/21
l 32 37
l 38 9
l 5 39
l 39 40
o Cube.001
v 0.475212 0.734567 -0.241130
v 0.902152 0.000000 -0.441130
v 0.147423 0.000000 -0.441130
v 0.475212 0.000000 0.158870
vt 0.000000 0.000000
vt 0.000000 0.000000
vt 0.000000 0.000000
vt 0.000000 0.000000
vn -0.7612 0.4632 -0.4539
vn -0.0374 0.9993 -0.0013
vn 0.7512 0.5399 -0.3798
vn -0.0422 0.4778 0.8774
vn 0.7511 0.5400 -0.3797
vn -0.0423 0.4778 0.8774
vn -0.0374 0.9993 -0.0014
vn -0.7612 0.4633 -0.4539
usemtl Material
s off
f 43/46/65 41/47/66 42/48/67
f 41/47/66 44/49/68 42/48/69
f 44/49/70 41/47/71 43/46/72
o Cube.002
v -0.475212 0.829714 0.377717
v -0.147423 0.087106 0.210024
v -0.902152 0.087106 0.210024
v -0.475212 0.113339 0.809451
vt 0.000000 0.000000
vt 0.000000 0.000000
vt 0.000000 0.000000
vt 0.000000 0.000000
vn -0.7512 0.5228 -0.4030
vn 0.0374 0.9983 -0.0450
vn 0.7612 0.4429 -0.4737
vn 0.0423 0.5157 0.8557
vn 0.7612 0.4430 -0.4737
vn 0.0422 0.5157 0.8557
vn -0.7511 0.5229 -0.4030
usemtl Material
s off
f 47/50/73 45/51/74 46/52/75
f 45/51/74 48/53/76 46/52/77
f 48/53/78 45/51/74 47/50/79
