# Blender v3.2.2 OBJ File: 'snooper.blend'
# www.blender.org
mtllib snooper_000008.mtl
o Cube.003
v -0.475212 0.734567 -0.071307
v -0.147423 0.000000 -0.271307
v -0.902152 0.000000 -0.271307
v -0.475212 0.000000 0.328693
vt 0.000000 0.000000
vt 0.000000 0.000000
vt 0.000000 0.000000
vt 0.000000 0.000000
vn -0.7512 0.5399 -0.3798
vn 0.0374 0.9993 -0.0013
vn 0.7612 0.4632 -0.4539
vn 0.0374 0.9993 -0.0014
vn 0.0423 0.4778 0.8774
vn 0.7612 0.4633 -0.4539
vn 0.0422 0.4778 0.8774
vn -0.7511 0.5400 -0.3797
usemtl Material.001
s off
f 3/1/1 1/2/2 2/3/3
f 1/2/4 4/4/5 2/3/6
f 4/4/7 1/2/2 3/1/8
o Cube
v 0.432075 0.684033 -0.900000
v 0.928351 0.744940 0.300000
v -0.560478 0.562220 0.900000
v -1.056755 0.501313 -0.300000
v -0.560478 0.562220 -0.900000
v 0.928351 0.744940 -0.300000
v 0.432075 0.684033 0.900000
v -1.056755 0.501313 0.300000
v -1.154206 1.295356 -0.300000
v 0.830901 1.538982 0.300000
v 0.334624 1.478076 -0.900000
v -0.657929 1.356262 0.900000
v -0.657929 1.356262 -0.900000
v 0.830901 1.538982 -0.300000
v 0.334624 1.478076 0.900000
v -1.154206 1.295356 0.300000
v -0.607986 1.770244 0.300000
v 0.186057 1.867695 0.300000
v 0.186057 1.867695 -0.300000
v -0.607986 1.770244 -0.300000
v -0.354378 0.839390 0.900000
v -0.267901 1.051503 0.900000
v 0.029865 1.088047 0.900000
v 0.164340 0.903050 0.900000
v 0.078590 0.691026 0.900000
v -0.219176 0.654482 0.900000
v -0.353650 0.839479 1.180000
v -0.267901 1.051503 1.180000
v 0.029865 1.088047 1.180000
v 0.165068 0.903140 1.180000
v 0.078590 0.691026 1.180000
v -0.219176 0.654482 1.180000
v -0.137822 1.010717 1.088129
v -0.560478 0.562220 -0.900000
v 0.432075 0.684033 -0.900000
v 0.432075 0.684033 -0.900000
vt 0.000000 0.000000
vt 0.000000 0.000000
vt 0.000000 0.000000
vt 0.000000 0.000000
vt 0.000000 0.000000
vt 0.000000 0.000000
vt 0.000000 0.000000
vt 0.000000 0.000000
vt 0.000000 0.000000
vt 0.000000 0.000000
vt 0.000000 0.000000
vt 0.000000 0.000000
vt 0.000000 0.000000
vt 0.000000 0.000000
vt 0.000000 0.000000
vt 0.000000 0.000000
vt 0.000000 0.000000
vt 0.000000 0.000000
vt 0.000000 0.000000
vt 0.000000 0.000000
vt 0.609375 0.140625
vt 0.390625 0.390625
vt 0.390625 0.140625
vt 0.000000 0.000000
vt 0.000000 0.000000
vt 0.000000 0.000000
vt 0.000000 0.000000
vt 0.000000 0.000000
vt 0.000000 0.000000
vt 0.000000 0.000000
vt 0.000000 0.000000
vt 0.000000 0.000000
vt 0.000000 0.000000
vt 0.000000 0.000000
vt 0.000000 0.000000
vt 1.000000 0.000000
vt 1.000000 1.000000
vt 0.000000 1.000000
vt 0.265625 0.265625
vt 0.609375 0.390625
vt 0.734375 0.265625
vn 0.4210 0.0517 0.9056
vn 0.9333 0.1146 0.3404
vn 0.7986 0.5249 0.2944
vn -0.4210 -0.0517 -0.9056
vn -0.9333 -0.1145 -0.3404
vn -0.9018 0.3162 -0.2944
vn 0.9333 0.1145 0.3404
vn 0.9333 0.1146 -0.3404
vn 0.7986 0.5249 -0.2944
vn -0.9333 -0.1145 0.3404
vn -0.9018 0.3162 0.2944
vn 0.9333 0.1145 -0.3404
vn 0.4210 0.0517 -0.9056
vn 0.3184 0.4637 -0.8268
vn -0.4210 -0.0516 -0.9056
vn -0.4211 0.3730 -0.8267
vn -0.4210 -0.0516 0.9056
vn -0.4211 0.3730 0.8268
vn -0.3740 0.8905 0.2593
vn -0.9018 0.3162 0.2945
vn 0.7986 0.5249 0.2945
vn 0.1475 0.9545 0.2593
vn 0.3184 0.4638 0.8268
vn 0.3184 0.4638 -0.8268
vn 0.1475 0.9545 -0.2593
vn 0.7986 0.5249 -0.2945
vn -0.9018 0.3162 -0.2945
vn -0.3740 0.8905 -0.2593
vn -0.4211 0.3730 -0.8268
vn 0.1476 0.9545 -0.2593
vn 0.1476 0.9545 0.2593
vn -0.3740 0.8904 -0.2593
vn 0.4818 -0.6301 0.6090
vn -0.4824 0.6296 0.6090
vn -0.3158 -0.7276 0.6090
vn 0.6081 -0.7938 -0.0007
vn -0.3157 -0.7276 0.6090
vn -0.3974 -0.9177 0.0000
vn 0.9925 0.1224 -0.0019
vn 0.3987 0.9171 0.0000
vn 0.3157 0.7279 0.6087
vn -0.9926 -0.1218 0.0011
vn -0.7838 -0.0962 0.6135
vn -0.4823 0.6297 0.6090
vn 0.7854 0.0969 0.6113
vn -0.6075 0.7943 0.0000
vn 0.4819 -0.6300 0.6090
vn 0.6081 -0.7938 -0.0008
vn 0.3184 0.4638 0.8267
vn -0.4211 0.3730 0.8267
vn 0.4210 0.0516 0.9056
vn -0.9019 0.3162 -0.2944
vn 0.3184 0.4638 -0.8267
vn -0.9333 -0.1146 0.3404
vn -0.3740 0.8904 0.2593
vn 0.4819 -0.6301 0.6090
vn 0.7854 0.0968 0.6113
vn -0.4824 0.6297 0.6090
vn 0.6081 -0.7939 -0.0008
usemtl Material
s off
f 11/5/9 6/6/10 14/7/11
f 9/8/12 8/9/13 13/10/14
f 6/6/15 10/11/16 18/12/17
f 8/9/13 12/13/18 20/14/19
f 10/11/20 5/15/21 15/16/22
f 5/15/21 9/8/23 17/17/24
f 12/13/18 7/18/25 16/19/26
f 16/19/26 21/20/27 20/14/28
f 14/7/29 22/21/30 19/22/31
f 15/16/32 23/23/33 18/12/34
f 13/10/35 24/24/36 17/17/37
f 23/23/38 22/21/30 14/7/29
f 24/24/36 23/23/38 15/16/32
f 24/24/36 13/10/14 20/14/28
f 16/19/26 19/22/31 22/21/30
f 22/21/39 23/23/38 24/24/40
f 35/25/41 32/26/42 36/27/43
f 29/28/44 36/29/45 30/30/46
f 28/31/47 27/32/48 33/33/49
f 25/34/50 31/35/51 32/36/52
f 25/34/50 36/29/45 31/35/51
f 29/28/44 28/31/47 34/37/53
f 27/32/48 26/38/54 32/36/52
f 35/39/55 36/29/43 29/28/56
f 30/30/46 36/29/43 25/34/50
f 11/40/9 19/41/57 16/42/58
f 11/5/59 14/7/11 19/22/31
f 9/8/12 13/10/60 17/17/37
f 6/6/10 18/12/17 14/7/11
f 8/9/13 20/14/19 13/10/14
f 10/11/20 15/16/32 18/12/17
f 5/15/21 17/17/24 15/16/61
f 12/13/62 16/19/26 20/14/19
f 23/23/38 14/7/29 18/12/17
f 24/24/36 15/16/32 17/17/37
f 24/24/40 20/14/28 21/20/27
f 16/19/26 22/21/39 21/20/63
f 22/21/39 24/24/40 21/20/63
f 31/43/51 36/27/43 32/26/52
f 32/26/52 35/25/64 33/44/49
f 33/44/49 35/25/55 34/45/65
f 28/31/47 33/33/49 34/37/53
f 25/34/50 32/36/66 26/38/54
f 29/28/67 34/37/53 35/39/41
f 27/32/48 32/36/66 33/33/49
f 11/40/9 16/42/58 7/18/25
l 32 37
l 38 9
l 5 39
l 39 40
o Cube.001
v 0.475212 0.924678 0.343920
v 0.902152 0.181604 0.178299
v 0.147423 0.181604 0.178299
v 0.475212 0.209509 0.777650
vt 0.000000 0.000000
vt 0.000000 0.000000
vt 0.000000 0.000000
vt 0.000000 0.000000
vn -0.7612 0.4416 -0.4749
vn -0.0374 0.9982 -0.0478
vn 0.7512 0.5217 -0.4045
vn -0.0422 0.5181 0.8543
vn 0.7511 0.5218 -0.4045
vn -0.0423 0.5181 0.8543
vn -0.7612 0.4417 -0.4749
usemtl Material
s off
f 43/46/68 41/47/69 42/48/70
f 41/47/69 44/49/71 42/48/72
f 44/49/73 41/47/69 43/46/74
o Cube.002
v -0.475212 0.734567 -0.071307
v -0.147423 0.000000 -0.271307
v -0.902152 0.000000 -0.271307
v -0.475212 0.000000 0.328693
vt 0.000000 0.000000
vt 0.000000 0.000000
vt 0.000000 0.000000
vt 0.000000 0.000000
vn -0.7512 0.5399 -0.3798
vn 0.0374 0.9993 -0.0013
vn 0.7612 0.4632 -0.4539
vn 0.0374 0.9993 -0.0014
vn 0.0423 0.4778 0.8774
vn 0.7612 0.4633 -0.4539
vn 0.0422 0.4778 0.8774
vn -0.7511 0.5400 -0.3797
usemtl Material
s off
f 47/50/75 45/51/76 46/52/77
f 45/51/78 48/53/79 46/52/80
f 48/53/81 45/51/76 47/50/82
