# Blender v3.2.2 OBJ File: 'snooper.blend'
# www.blender.org
mtllib snooper_000015.mtl
o Cube.003
v -0.475212 0.967410 -0.055055
v -0.147423 0.258227 -0.331907
v -0.902152 0.258227 -0.331907
v -0.475212 0.194530 0.264702
vt 0.000000 0.000000
vt 0.000000 0.000000
vt 0.000000 0.000000
vt 0.000000 0.000000
vn -0.7512 0.5772 -0.3203
vn 0.0374 0.9938 0.1048
vn 0.7612 0.5088 -0.4022
vn 0.0374 0.9938 0.1047
vn 0.0423 0.3820 0.9232
vn 0.7612 0.5088 -0.4021
vn 0.0422 0.3820 0.9232
vn -0.7511 0.5773 -0.3203
usemtl Material.001
s off
f 3/1/1 1/2/2 2/3/3
f 1/2/4 4/4/5 2/3/6
f 4/4/7 1/2/2 3/1/8
o Cube
v 0.535339 0.526317 -0.900000
v 1.034135 0.491650 0.300000
v -0.462255 0.595649 0.900000
v -0.961052 0.630316 -0.300000
v -0.462255 0.595649 -0.900000
v 1.034135 0.491650 -0.300000
v 0.535339 0.526317 0.900000
v -0.961052 0.630316 0.300000
v -0.905586 1.428390 -0.300000
v 1.089601 1.289725 0.300000
v 0.590805 1.324391 -0.900000
v -0.406789 1.393724 0.900000
v -0.406789 1.393724 -0.900000
v 1.089601 1.289725 -0.300000
v 0.590805 1.324391 0.900000
v -0.905586 1.428390 0.300000
v -0.278963 1.790632 0.300000
v 0.519112 1.735166 0.300000
v 0.519112 1.735166 -0.300000
v -0.278963 1.790632 -0.300000
v -0.207167 0.828524 0.900000
v -0.081898 1.020300 0.900000
v 0.217380 0.999500 0.900000
v 0.314185 0.792290 0.900000
v 0.189647 0.600463 0.900000
v -0.109631 0.621263 0.900000
v -0.206435 0.828473 1.180000
v -0.081898 1.020300 1.180000
v 0.217380 0.999500 1.180000
v 0.314917 0.792239 1.180000
v 0.189647 0.600463 1.180000
v -0.109631 0.621263 1.180000
v 0.038040 0.955500 1.088129
v -0.462255 0.595649 -0.900000
v 0.535339 0.526317 -0.900000
v 0.535339 0.526317 -0.900000
vt 0.000000 0.000000
vt 0.000000 0.000000
vt 0.000000 0.000000
vt 0.000000 0.000000
vt 0.000000 0.000000
vt 0.000000 0.000000
vt 0.000000 0.000000
vt 0.000000 0.000000
vt 0.000000 0.000000
vt 0.000000 0.000000
vt 0.000000 0.000000
vt 0.000000 0.000000
vt 0.000000 0.000000
vt 0.000000 0.000000
vt 0.000000 0.000000
vt 0.000000 0.000000
vt 0.000000 0.000000
vt 0.000000 0.000000
vt 0.000000 0.000000
vt 0.000000 0.000000
vt 0.609375 0.140625
vt 0.390625 0.390625
vt 0.390625 0.140625
vt 0.000000 0.000000
vt 0.000000 0.000000
vt 0.000000 0.000000
vt 0.000000 0.000000
vt 0.000000 0.000000
vt 0.000000 0.000000
vt 0.000000 0.000000
vt 0.000000 0.000000
vt 0.000000 0.000000
vt 0.000000 0.000000
vt 0.000000 0.000000
vt 0.000000 0.000000
vt 1.000000 0.000000
vt 1.000000 1.000000
vt 0.000000 1.000000
vt 0.265625 0.265625
vt 0.609375 0.390625
vt 0.734375 0.265625
vn 0.4231 -0.0294 0.9056
vn 0.9380 -0.0652 0.3404
vn 0.8839 0.3633 0.2944
vn -0.4231 0.0294 -0.9056
vn -0.9380 0.0652 -0.3404
vn -0.8252 0.4821 -0.2944
vn 0.9380 -0.0652 -0.3404
vn 0.8839 0.3633 -0.2944
vn -0.9380 0.0652 0.3404
vn -0.8252 0.4821 0.2944
vn 0.4232 -0.0294 -0.9056
vn 0.4009 0.3947 -0.8268
vn 0.4231 -0.0294 -0.9056
vn -0.3424 0.4463 -0.8267
vn -0.4231 0.0294 0.9056
vn -0.3424 0.4463 0.8268
vn -0.3424 0.4464 0.8268
vn -0.1976 0.9454 0.2593
vn -0.8252 0.4821 0.2945
vn 0.8839 0.3633 0.2945
vn 0.3265 0.9089 0.2593
vn 0.4009 0.3947 0.8268
vn 0.3265 0.9089 -0.2593
vn 0.8839 0.3633 -0.2945
vn -0.8252 0.4821 -0.2945
vn -0.1976 0.9454 -0.2593
vn -0.3424 0.4464 -0.8268
vn -0.1977 0.9454 -0.2593
vn 0.3266 0.9089 -0.2593
vn 0.4008 0.3947 -0.8268
vn 0.4008 0.3947 0.8268
vn 0.3531 -0.7103 0.6090
vn -0.3537 0.7099 0.6090
vn -0.4485 -0.6542 0.6090
vn 0.4459 -0.8951 -0.0007
vn -0.4484 -0.6542 0.6090
vn -0.5648 -0.8252 0.0000
vn 0.9976 -0.0687 -0.0019
vn 0.5659 0.8244 0.0000
vn 0.4485 0.6545 0.6087
vn -0.9976 0.0693 0.0011
vn -0.7878 0.0547 0.6135
vn -0.3537 0.7100 0.6090
vn -0.7878 0.0548 0.6135
vn 0.7895 -0.0544 0.6113
vn 0.5659 0.8245 -0.0000
vn -0.4452 0.8954 0.0000
vn -0.3536 0.7100 0.6090
vn 0.3532 -0.7102 0.6090
vn 0.4459 -0.8951 -0.0008
vn 0.4009 0.3947 0.8267
vn -0.3424 0.4464 0.8267
vn -0.4232 0.0294 -0.9056
vn -0.3424 0.4463 -0.8268
vn -0.3424 0.4464 -0.8267
vn 0.4009 0.3947 -0.8267
vn -0.1977 0.9453 0.2593
vn -0.1977 0.9454 0.2593
vn -0.3424 0.4463 0.8267
usemtl Material
s off
f 11/5/9 6/6/10 14/7/11
f 9/8/12 8/9/13 13/10/14
f 6/6/10 10/11/15 18/12/16
f 8/9/13 12/13/17 20/14/18
f 10/11/15 5/15/19 15/16/20
f 5/15/21 9/8/12 17/17/22
f 12/13/17 7/18/23 16/19/24
f 16/19/25 21/20/26 20/14/27
f 14/7/28 22/21/29 19/22/30
f 15/16/20 23/23/31 18/12/32
f 13/10/33 24/24/34 17/17/35
f 23/23/31 22/21/29 14/7/28
f 24/24/36 23/23/37 15/16/38
f 24/24/36 13/10/14 20/14/27
f 16/19/25 19/22/39 22/21/29
f 22/21/29 23/23/31 24/24/36
f 35/25/40 32/26/41 36/27/42
f 29/28/43 36/29/44 30/30/45
f 28/31/46 27/32/47 33/33/48
f 25/34/49 31/35/50 32/36/51
f 25/34/49 36/29/42 31/35/52
f 29/28/43 28/31/46 34/37/53
f 27/32/54 26/38/55 32/36/56
f 35/39/57 36/29/42 29/28/58
f 30/30/45 36/29/42 25/34/49
f 11/40/9 19/41/59 16/42/60
f 11/5/9 14/7/11 19/22/30
f 9/8/61 13/10/14 17/17/62
f 6/6/10 18/12/16 14/7/11
f 8/9/13 20/14/18 13/10/14
f 10/11/15 15/16/20 18/12/16
f 5/15/21 17/17/63 15/16/64
f 12/13/17 16/19/24 20/14/18
f 23/23/31 14/7/28 18/12/16
f 24/24/34 15/16/20 17/17/62
f 24/24/36 20/14/27 21/20/26
f 16/19/24 22/21/29 21/20/65
f 22/21/29 24/24/36 21/20/66
f 31/43/50 36/27/42 32/26/51
f 32/26/51 35/25/40 33/44/48
f 33/44/48 35/25/57 34/45/53
f 28/31/46 33/33/48 34/37/53
f 25/34/49 32/36/41 26/38/55
f 29/28/58 34/37/53 35/39/40
f 27/32/54 32/36/51 33/33/48
f 11/40/9 16/42/67 7/18/23
l 32 37
l 38 9
l 5 39
l 39 40
o Cube.001
v 0.475212 0.734567 0.124068
v 0.902152 0.000000 -0.075932
v 0.147423 0.000000 -0.075932
v 0.475212 0.000000 0.524068
vt 0.000000 0.000000
vt 0.000000 0.000000
vt 0.000000 0.000000
vt 0.000000 0.000000
vn -0.7612 0.4632 -0.4539
vn -0.0374 0.9993 -0.0013
vn 0.7512 0.5399 -0.3798
vn -0.0422 0.4778 0.8774
vn 0.7511 0.5400 -0.3797
vn -0.0423 0.4778 0.8774
vn -0.0374 0.9993 -0.0014
vn -0.7612 0.4633 -0.4539
usemtl Material
s off
f 43/46/68 41/47/69 42/48/70
f 41/47/69 44/49/71 42/48/72
f 44/49/73 41/47/74 43/46/75
o Cube.002
v -0.475212 0.967410 -0.055055
v -0.147423 0.258227 -0.331907
v -0.902152 0.258227 -0.331907
v -0.475212 0.194530 0.264702
vt 0.000000 0.000000
vt 0.000000 0.000000
vt 0.000000 0.000000
vt 0.000000 0.000000
vn -0.7512 0.5772 -0.3203
vn 0.0374 0.9938 0.1048
vn 0.7612 0.5088 -0.4022
vn 0.0374 0.9938 0.1047
vn 0.0423 0.3820 0.9232
vn 0.7612 0.5088 -0.4021
vn 0.0422 0.3820 0.9232
vn -0.7511 0.5773 -0.3203
usemtl Material
s off
f 47/50/76 45/51/77 46/52/78
f 45/51/79 48/53/80 46/52/81
f 48/53/82 45/51/77 47/50/83
