# Blender v3.2.2 OBJ File: 'snooper.blend'
# www.blender.org
mtllib snooper_000017.mtl
o Cube.003
v -0.475212 0.965205 0.224933
v -0.147423 0.228169 0.034233
v -0.902152 0.228169 0.034233
v -0.475212 0.235752 0.634185
vt 0.000000 0.000000
vt 0.000000 0.000000
vt 0.000000 0.000000
vt 0.000000 0.000000
vn -0.7512 0.5351 -0.3866
vn 0.0374 0.9992 -0.0140
vn 0.7612 0.4575 -0.4597
vn 0.0423 0.4889 0.8713
vn 0.0422 0.4889 0.8713
vn -0.7511 0.5352 -0.3865
usemtl Material.001
s off
f 3/1/1 1/2/2 2/3/3
f 1/2/2 4/4/4 2/3/3
f 4/4/5 1/2/2 3/1/6
o Cube
v 0.557329 0.555613 -0.900000
v 1.054007 0.498076 0.300000
v -0.436028 0.670687 0.900000
v -0.932707 0.728225 -0.300000
v -0.436028 0.670687 -0.900000
v 1.054007 0.498076 -0.300000
v 0.557329 0.555613 0.900000
v -0.932707 0.728225 0.300000
v -0.840647 1.522910 -0.300000
v 1.146067 1.292761 0.300000
v 0.649388 1.350298 -0.900000
v -0.343969 1.465373 0.900000
v -0.343969 1.465373 -0.900000
v 1.146067 1.292761 -0.300000
v 0.649388 1.350298 0.900000
v -0.840647 1.522910 0.300000
v -0.198049 1.855992 0.300000
v 0.596636 1.763932 0.300000
v 0.596636 1.763932 -0.300000
v -0.198049 1.855992 -0.300000
v -0.170514 0.891601 0.900000
v -0.036570 1.077422 0.900000
v 0.261437 1.042899 0.900000
v 0.348623 0.831462 0.900000
v 0.215407 0.645557 0.900000
v -0.082600 0.680079 0.900000
v -0.169786 0.891517 1.180000
v -0.036570 1.077422 1.180000
v 0.261437 1.042899 1.180000
v 0.349352 0.831378 1.180000
v 0.215407 0.645557 1.180000
v -0.082600 0.680079 1.180000
v 0.080265 1.007182 1.088129
v -0.436028 0.670687 -0.900000
v 0.557329 0.555613 -0.900000
v 0.557329 0.555613 -0.900000
vt 0.000000 0.000000
vt 0.000000 0.000000
vt 0.000000 0.000000
vt 0.000000 0.000000
vt 0.000000 0.000000
vt 0.000000 0.000000
vt 0.000000 0.000000
vt 0.000000 0.000000
vt 0.000000 0.000000
vt 0.000000 0.000000
vt 0.000000 0.000000
vt 0.000000 0.000000
vt 0.000000 0.000000
vt 0.000000 0.000000
vt 0.000000 0.000000
vt 0.000000 0.000000
vt 0.000000 0.000000
vt 0.000000 0.000000
vt 0.000000 0.000000
vt 0.000000 0.000000
vt 0.609375 0.140625
vt 0.390625 0.390625
vt 0.390625 0.140625
vt 0.000000 0.000000
vt 0.000000 0.000000
vt 0.000000 0.000000
vt 0.000000 0.000000
vt 0.000000 0.000000
vt 0.000000 0.000000
vt 0.000000 0.000000
vt 0.000000 0.000000
vt 0.000000 0.000000
vt 0.000000 0.000000
vt 0.000000 0.000000
vt 0.000000 0.000000
vt 1.000000 0.000000
vt 1.000000 1.000000
vt 0.000000 1.000000
vt 0.265625 0.265625
vt 0.609375 0.390625
vt 0.734375 0.265625
vn 0.4214 -0.0488 0.9056
vn 0.9340 -0.1082 0.3404
vn 0.8997 0.3223 0.2944
vn -0.4214 0.0488 -0.9056
vn -0.9340 0.1082 -0.3404
vn -0.8022 0.5195 -0.2944
vn 0.9340 -0.1082 -0.3404
vn 0.8997 0.3223 -0.2944
vn -0.9340 0.1082 0.3404
vn -0.8022 0.5195 0.2944
vn 0.4214 -0.0488 -0.9056
vn 0.4186 0.3758 -0.8268
vn 0.4213 -0.0488 -0.9056
vn -0.4213 0.0488 -0.9056
vn -0.3216 0.4616 -0.8267
vn -0.4213 0.0488 0.9056
vn -0.3215 0.4616 0.8268
vn -0.1540 0.9534 0.2593
vn -0.8022 0.5194 0.2945
vn 0.8997 0.3223 0.2945
vn 0.3679 0.8930 0.2593
vn 0.4186 0.3759 0.8268
vn 0.4186 0.3759 -0.8268
vn 0.3679 0.8930 -0.2593
vn 0.8997 0.3223 -0.2945
vn -0.8022 0.5194 -0.2945
vn -0.1540 0.9534 -0.2593
vn -0.3215 0.4616 -0.8268
vn 0.4185 0.3759 -0.8268
vn -0.8021 0.5195 0.2945
vn 0.4185 0.3759 0.8268
vn 0.3201 -0.7257 0.6090
vn -0.3208 0.7254 0.6090
vn -0.4781 -0.6329 0.6090
vn 0.4043 -0.9146 -0.0007
vn -0.4780 -0.6329 0.6090
vn -0.6021 -0.7984 0.0000
vn 0.9934 -0.1145 -0.0019
vn 0.6032 0.7976 0.0000
vn 0.4781 0.6332 0.6087
vn -0.9934 0.1151 0.0011
vn -0.7845 0.0908 0.6135
vn -0.3207 0.7255 0.6090
vn -0.7845 0.0909 0.6135
vn 0.7862 -0.0906 0.6113
vn -0.4036 0.9149 0.0000
vn -0.3206 0.7255 0.6090
vn 0.3202 -0.7257 0.6090
vn 0.4043 -0.9146 -0.0008
vn 0.4213 -0.0488 0.9056
vn 0.4186 0.3759 0.8267
vn -0.3216 0.4616 0.8267
vn -0.3216 0.4616 -0.8268
vn 0.4186 0.3759 -0.8267
vn -0.3216 0.4616 0.8268
vn -0.1541 0.9534 0.2593
vn 0.4780 0.6332 0.6087
vn -0.3207 0.7254 0.6090
vn 0.3201 -0.7258 0.6090
usemtl Material
s off
f 11/5/7 6/6/8 14/7/9
f 9/8/10 8/9/11 13/10/12
f 6/6/8 10/11/13 18/12/14
f 8/9/11 12/13/15 20/14/16
f 10/11/13 5/15/17 15/16/18
f 5/15/19 9/8/20 17/17/21
f 12/13/15 7/18/22 16/19/23
f 16/19/23 21/20/24 20/14/25
f 14/7/26 22/21/27 19/22/28
f 15/16/29 23/23/30 18/12/31
f 13/10/32 24/24/33 17/17/34
f 23/23/30 22/21/27 14/7/26
f 24/24/33 23/23/30 15/16/35
f 24/24/33 13/10/12 20/14/36
f 16/19/23 19/22/37 22/21/27
f 22/21/27 23/23/30 24/24/33
f 35/25/38 32/26/39 36/27/40
f 29/28/41 36/29/42 30/30/43
f 28/31/44 27/32/45 33/33/46
f 25/34/47 31/35/48 32/36/49
f 25/34/47 36/29/42 31/35/50
f 29/28/41 28/31/44 34/37/51
f 27/32/45 26/38/52 32/36/53
f 35/39/54 36/29/40 29/28/55
f 30/30/43 36/29/40 25/34/47
f 11/40/56 19/41/57 16/42/58
f 11/5/56 14/7/9 19/22/28
f 9/8/10 13/10/12 17/17/59
f 6/6/8 18/12/14 14/7/9
f 8/9/11 20/14/16 13/10/12
f 10/11/13 15/16/29 18/12/14
f 5/15/19 17/17/21 15/16/60
f 12/13/15 16/19/61 20/14/16
f 23/23/30 14/7/26 18/12/14
f 24/24/33 15/16/29 17/17/34
f 24/24/33 20/14/36 21/20/24
f 16/19/23 22/21/27 21/20/62
f 22/21/27 24/24/33 21/20/24
f 31/43/48 36/27/40 32/26/49
f 32/26/49 35/25/38 33/44/63
f 33/44/46 35/25/54 34/45/51
f 28/31/44 33/33/46 34/37/51
f 25/34/47 32/36/64 26/38/52
f 29/28/55 34/37/51 35/39/65
f 27/32/45 32/36/49 33/33/46
f 11/40/56 16/42/58 7/18/22
l 32 37
l 38 9
l 5 39
l 39 40
o Cube.001
v 0.475212 0.734567 -0.044478
v 0.902152 0.000000 -0.244478
v 0.147423 0.000000 -0.244478
v 0.475212 0.000000 0.355522
vt 0.000000 0.000000
vt 0.000000 0.000000
vt 0.000000 0.000000
vt 0.000000 0.000000
vn -0.7612 0.4632 -0.4539
vn -0.0374 0.9993 -0.0013
vn 0.7512 0.5399 -0.3798
vn -0.0422 0.4778 0.8774
vn 0.7511 0.5400 -0.3797
vn -0.0423 0.4778 0.8774
vn -0.0374 0.9993 -0.0014
vn -0.7612 0.4633 -0.4539
usemtl Material
s off
f 43/46/66 41/47/67 42/48/68
f 41/47/67 44/49/69 42/48/70
f 44/49/71 41/47/72 43/46/73
o Cube.002
v -0.475212 0.965205 0.224933
v -0.147423 0.228169 0.034233
v -0.902152 0.228169 0.034233
v -0.475212 0.235752 0.634185
vt 0.000000 0.000000
vt 0.000000 0.000000
vt 0.000000 0.000000
vt 0.000000 0.000000
vn -0.7512 0.5351 -0.3866
vn 0.0374 0.9992 -0.0140
vn 0.7612 0.4575 -0.4597
vn 0.0423 0.4889 0.8713
vn 0.0422 0.4889 0.8713
vn -0.7511 0.5352 -0.3865
usemtl Material
s off
f 47/50/74 45/51/75 46/52/76
f 45/51/75 48/53/77 46/52/76
f 48/53/78 45/51/75 47/50/79
