# Blender v3.2.2 OBJ File: 'snooper.blend'
# www.blender.org
mtllib snooper_000010.mtl
o Cube.003
v -0.475212 0.734567 -0.182356
v -0.147423 0.000000 -0.382356
v -0.902152 0.000000 -0.382356
v -0.475212 0.000000 0.217644
vt 0.000000 0.000000
vt 0.000000 0.000000
vt 0.000000 0.000000
vt 0.000000 0.000000
vn -0.7512 0.5399 -0.3798
vn 0.0374 0.9993 -0.0013
vn 0.7612 0.4632 -0.4539
vn 0.0374 0.9993 -0.0014
vn 0.0423 0.4778 0.8774
vn 0.7612 0.4633 -0.4539
vn 0.0422 0.4778 0.8774
vn -0.7511 0.5400 -0.3797
usemtl Material.001
s off
f 3/1/1 1/2/2 2/3/3
f 1/2/4 4/4/5 2/3/6
f 4/4/7 1/2/2 3/1/8
o Cube
v 0.446766 0.637673 -0.900000
v 0.944429 0.685958 0.300000
v -0.548560 0.541103 0.900000
v -1.046223 0.492818 -0.300000
v -0.548560 0.541103 -0.900000
v 0.944429 0.685958 -0.300000
v 0.446766 0.637673 0.900000
v -1.046223 0.492818 0.300000
v -1.123479 1.289079 -0.300000
v 0.867173 1.482219 0.300000
v 0.369510 1.433934 -0.900000
v -0.625816 1.337364 0.900000
v -0.625816 1.337364 -0.900000
v 0.867173 1.482219 -0.300000
v 0.369510 1.433934 0.900000
v -1.123479 1.289079 0.300000
v -0.565376 1.749945 0.300000
v 0.230885 1.827201 0.300000
v 0.230885 1.827201 -0.300000
v -0.565376 1.749945 -0.300000
v -0.335488 0.812950 0.900000
v -0.243652 1.022799 0.900000
v 0.054945 1.051770 0.900000
v 0.184679 0.863418 0.900000
v 0.093573 0.653640 0.900000
v -0.205025 0.624669 0.900000
v -0.334758 0.813021 1.180000
v -0.243652 1.022799 1.180000
v 0.054945 1.051770 1.180000
v 0.185409 0.863489 1.180000
v 0.093573 0.653640 1.180000
v -0.205025 0.624669 1.180000
v -0.114652 0.978723 1.088129
v -0.548560 0.541103 -0.900000
v 0.446766 0.637673 -0.900000
v 0.446766 0.637673 -0.900000
vt 0.000000 0.000000
vt 0.000000 0.000000
vt 0.000000 0.000000
vt 0.000000 0.000000
vt 0.000000 0.000000
vt 0.000000 0.000000
vt 0.000000 0.000000
vt 0.000000 0.000000
vt 0.000000 0.000000
vt 0.000000 0.000000
vt 0.000000 0.000000
vt 0.000000 0.000000
vt 0.000000 0.000000
vt 0.000000 0.000000
vt 0.000000 0.000000
vt 0.000000 0.000000
vt 0.000000 0.000000
vt 0.000000 0.000000
vt 0.000000 0.000000
vt 0.000000 0.000000
vt 0.609375 0.140625
vt 0.390625 0.390625
vt 0.390625 0.140625
vt 0.000000 0.000000
vt 0.000000 0.000000
vt 0.000000 0.000000
vt 0.000000 0.000000
vt 0.000000 0.000000
vt 0.000000 0.000000
vt 0.000000 0.000000
vt 0.000000 0.000000
vt 0.000000 0.000000
vt 0.000000 0.000000
vt 0.000000 0.000000
vt 0.000000 0.000000
vt 1.000000 0.000000
vt 1.000000 1.000000
vt 0.000000 1.000000
vt 0.265625 0.265625
vt 0.609375 0.390625
vt 0.734375 0.265625
vn 0.4222 0.0410 0.9056
vn 0.9359 0.0908 0.3404
vn 0.8117 0.5045 0.2944
vn -0.4222 -0.0410 -0.9056
vn -0.9359 -0.0908 -0.3404
vn -0.8935 0.3390 -0.2944
vn 0.9359 0.0908 -0.3404
vn 0.8117 0.5045 -0.2944
vn -0.9359 -0.0908 0.3404
vn -0.8935 0.3390 0.2944
vn 0.4222 0.0410 -0.9056
vn 0.3301 0.4555 -0.8268
vn -0.4222 -0.0409 -0.9056
vn -0.4115 0.3836 -0.8267
vn -0.4222 -0.0409 0.9056
vn -0.4115 0.3836 0.8268
vn -0.3512 0.8997 0.2593
vn -0.8935 0.3390 0.2945
vn 0.8117 0.5044 0.2945
vn 0.1717 0.9504 0.2593
vn 0.3301 0.4556 0.8268
vn 0.3301 0.4556 -0.8268
vn 0.1717 0.9504 -0.2593
vn 0.8117 0.5044 -0.2945
vn -0.8935 0.3390 -0.2945
vn -0.3512 0.8997 -0.2593
vn -0.4115 0.3836 -0.8268
vn 0.1718 0.9504 -0.2593
vn 0.8117 0.5045 0.2945
vn 0.3301 0.4555 0.8268
vn 0.1718 0.9504 0.2593
vn -0.3513 0.8997 -0.2593
vn 0.4657 -0.6421 0.6090
vn -0.4662 0.6417 0.6090
vn -0.3342 -0.7193 0.6090
vn 0.5878 -0.8090 -0.0007
vn -0.3341 -0.7194 0.6090
vn -0.4206 -0.9073 0.0000
vn 0.9953 0.0972 -0.0019
vn 0.4218 0.9067 0.0000
vn 0.3341 0.7196 0.6087
vn -0.9953 -0.0966 0.0011
vn -0.7860 -0.0763 0.6135
vn -0.7860 -0.0762 0.6135
vn 0.7876 0.0769 0.6113
vn -0.5871 0.8095 0.0000
vn -0.4661 0.6417 0.6090
vn -0.3342 -0.7194 0.6090
vn 0.5878 -0.8090 -0.0008
vn 0.3301 0.4556 0.8267
vn -0.4115 0.3836 0.8267
vn 0.4222 0.0409 0.9056
vn 0.8117 0.5044 0.2944
vn 0.8117 0.5044 -0.2944
vn 0.3301 0.4556 -0.8267
vn -0.3513 0.8997 0.2593
vn 0.4658 -0.6421 0.6090
vn 0.5877 -0.8090 -0.0008
usemtl Material
s off
f 11/5/9 6/6/10 14/7/11
f 9/8/12 8/9/13 13/10/14
f 6/6/10 10/11/15 18/12/16
f 8/9/13 12/13/17 20/14/18
f 10/11/15 5/15/19 15/16/20
f 5/15/19 9/8/21 17/17/22
f 12/13/17 7/18/23 16/19/24
f 16/19/24 21/20/25 20/14/26
f 14/7/27 22/21/28 19/22/29
f 15/16/30 23/23/31 18/12/32
f 13/10/33 24/24/34 17/17/35
f 23/23/36 22/21/28 14/7/37
f 24/24/34 23/23/36 15/16/20
f 24/24/34 13/10/14 20/14/26
f 16/19/24 19/22/38 22/21/28
f 22/21/39 23/23/36 24/24/40
f 35/25/41 32/26/42 36/27/43
f 29/28/44 36/29/45 30/30/46
f 28/31/47 27/32/48 33/33/49
f 25/34/50 31/35/51 32/36/42
f 25/34/50 36/29/45 31/35/52
f 29/28/44 28/31/47 34/37/53
f 27/32/48 26/38/54 32/36/55
f 35/39/41 36/29/56 29/28/57
f 30/30/46 36/29/56 25/34/50
f 11/40/9 19/41/58 16/42/59
f 11/5/60 14/7/61 19/22/38
f 9/8/12 13/10/14 17/17/35
f 6/6/10 18/12/16 14/7/11
f 8/9/13 20/14/18 13/10/14
f 10/11/15 15/16/20 18/12/62
f 5/15/19 17/17/22 15/16/63
f 12/13/17 16/19/24 20/14/18
f 23/23/31 14/7/37 18/12/62
f 24/24/34 15/16/20 17/17/35
f 24/24/34 20/14/26 21/20/25
f 16/19/24 22/21/28 21/20/64
f 22/21/39 24/24/34 21/20/25
f 31/43/51 36/27/45 32/26/42
f 32/26/42 35/25/41 33/44/49
f 33/44/49 35/25/65 34/45/53
f 28/31/47 33/33/49 34/37/53
f 25/34/50 32/36/42 26/38/54
f 29/28/66 34/37/53 35/39/41
f 27/32/48 32/36/42 33/33/49
f 11/40/9 16/42/59 7/18/23
l 32 37
l 38 9
l 5 39
l 39 40
o Cube.001
v 0.475212 0.829714 0.377717
v 0.902152 0.087106 0.210024
v 0.147423 0.087106 0.210024
v 0.475212 0.113339 0.809451
vt 0.000000 0.000000
vt 0.000000 0.000000
vt 0.000000 0.000000
vt 0.000000 0.000000
vn -0.7612 0.4429 -0.4737
vn -0.0374 0.9983 -0.0450
vn 0.7512 0.5228 -0.4030
vn -0.0422 0.5157 0.8557
vn 0.7511 0.5229 -0.4030
vn -0.0423 0.5157 0.8557
vn -0.7612 0.4430 -0.4737
usemtl Material
s off
f 43/46/67 41/47/68 42/48/69
f 41/47/68 44/49/70 42/48/71
f 44/49/72 41/47/68 43/46/73
o Cube.002
v -0.475212 0.734567 -0.182356
v -0.147423 0.000000 -0.382356
v -0.902152 0.000000 -0.382356
v -0.475212 0.000000 0.217644
vt 0.000000 0.000000
vt 0.000000 0.000000
vt 0.000000 0.000000
vt 0.000000 0.000000
vn -0.7512 0.5399 -0.3798
vn 0.0374 0.9993 -0.0013
vn 0.7612 0.4632 -0.4539
vn 0.0374 0.9993 -0.0014
vn 0.0423 0.4778 0.8774
vn 0.7612 0.4633 -0.4539
vn 0.0422 0.4778 0.8774
vn -0.7511 0.5400 -0.3797
usemtl Material
s off
f 47/50/74 45/51/75 46/52/76
f 45/51/77 48/53/78 46/52/79
f 48/53/80 45/51/75 47/50/81
