# Blender v3.2.2 OBJ File: 'snooper.blend'
# www.blender.org
mtllib snooper_000004.mtl
o Cube.003
v -0.475212 0.734567 0.161319
v -0.147423 0.000000 -0.038681
v -0.902152 0.000000 -0.038681
v -0.475212 0.000000 0.561319
vt 0.000000 0.000000
vt 0.000000 0.000000
vt 0.000000 0.000000
vt 0.000000 0.000000
vn -0.7512 0.5399 -0.3798
vn 0.0374 0.9993 -0.0013
vn 0.7612 0.4632 -0.4539
vn 0.0374 0.9993 -0.0014
vn 0.0423 0.4778 0.8774
vn 0.7612 0.4633 -0.4539
vn 0.0422 0.4778 0.8774
vn -0.7511 0.5400 -0.3797
usemtl Material.001
s off
f 3/1/1 1/2/2 2/3/3
f 1/2/4 4/4/5 2/3/6
f 4/4/7 1/2/2 3/1/8
o Cube
v 0.481717 0.554213 -0.900000
v 0.981425 0.571281 0.300000
v -0.517701 0.520076 0.900000
v -1.017409 0.503007 -0.300000
v -0.517701 0.520076 -0.900000
v 0.981425 0.571281 -0.300000
v 0.481717 0.554213 0.900000
v -1.017409 0.503007 0.300000
v -1.044719 1.302541 -0.300000
v 0.954116 1.370815 0.300000
v 0.454407 1.353746 -0.900000
v -0.545010 1.319609 0.900000
v -0.545010 1.319609 -0.900000
v 0.954116 1.370815 -0.300000
v 0.454407 1.353746 0.900000
v -1.044719 1.302541 0.300000
v -0.458888 1.727603 0.300000
v 0.340646 1.754912 0.300000
v 0.340646 1.754912 -0.300000
v -0.458888 1.727603 -0.300000
v -0.288045 0.778066 0.900000
v -0.183266 0.981761 0.900000
v 0.116559 0.992002 0.900000
v 0.234260 0.795906 0.900000
v 0.130214 0.592236 0.900000
v -0.169611 0.581994 0.900000
v -0.287312 0.778091 1.180000
v -0.183266 0.981761 1.180000
v 0.116559 0.992002 1.180000
v 0.234993 0.795931 1.180000
v 0.130214 0.592236 1.180000
v -0.169611 0.581994 1.180000
v -0.057274 0.929704 1.088129
v -0.517701 0.520076 -0.900000
v 0.481717 0.554213 -0.900000
v 0.481717 0.554213 -0.900000
vt 0.000000 0.000000
vt 0.000000 0.000000
vt 0.000000 0.000000
vt 0.000000 0.000000
vt 0.000000 0.000000
vt 0.000000 0.000000
vt 0.000000 0.000000
vt 0.000000 0.000000
vt 0.000000 0.000000
vt 0.000000 0.000000
vt 0.000000 0.000000
vt 0.000000 0.000000
vt 0.000000 0.000000
vt 0.000000 0.000000
vt 0.000000 0.000000
vt 0.000000 0.000000
vt 0.000000 0.000000
vt 0.000000 0.000000
vt 0.000000 0.000000
vt 0.000000 0.000000
vt 0.609375 0.140625
vt 0.390625 0.390625
vt 0.390625 0.140625
vt 0.000000 0.000000
vt 0.000000 0.000000
vt 0.000000 0.000000
vt 0.000000 0.000000
vt 0.000000 0.000000
vt 0.000000 0.000000
vt 0.000000 0.000000
vt 0.000000 0.000000
vt 0.000000 0.000000
vt 0.000000 0.000000
vt 0.000000 0.000000
vt 0.000000 0.000000
vt 1.000000 0.000000
vt 1.000000 1.000000
vt 0.000000 1.000000
vt 0.265625 0.265625
vt 0.609375 0.390625
vt 0.734375 0.265625
vn 0.4239 0.0145 0.9056
vn 0.9397 0.0321 0.3404
vn 0.8416 0.4527 0.2944
vn -0.4239 -0.0145 -0.9056
vn -0.9397 -0.0321 -0.3404
vn -0.8706 0.3942 -0.2944
vn 0.9397 0.0321 -0.3404
vn 0.8416 0.4527 -0.2944
vn -0.9397 -0.0321 0.3404
vn -0.8706 0.3942 0.2944
vn 0.4239 0.0145 -0.9056
vn 0.3579 0.4340 -0.8268
vn -0.3867 0.4086 -0.8267
vn -0.4239 -0.0145 0.9056
vn -0.3867 0.4085 0.8268
vn -0.3867 0.4086 0.8268
vn -0.2943 0.9199 0.2593
vn -0.8706 0.3942 0.2945
vn 0.8417 0.4527 0.2945
vn 0.2308 0.9378 0.2593
vn 0.3579 0.4340 0.8268
vn 0.2308 0.9378 -0.2593
vn 0.8417 0.4527 -0.2945
vn -0.8706 0.3942 -0.2945
vn -0.2943 0.9199 -0.2593
vn -0.3867 0.4086 -0.8268
vn 0.8416 0.4527 0.2945
vn 0.2309 0.9378 -0.2593
vn 0.4246 -0.6700 0.6090
vn -0.4252 0.6696 0.6090
vn -0.3785 -0.6970 0.6090
vn 0.5360 -0.8442 -0.0007
vn -0.3784 -0.6971 0.6090
vn -0.4765 -0.8792 0.0000
vn 0.9994 0.0347 -0.0019
vn 0.4777 0.8785 0.0000
vn 0.3784 0.6973 0.6087
vn -0.9994 -0.0341 0.0011
vn -0.7893 -0.0270 0.6135
vn -0.4251 0.6696 0.6090
vn -0.9994 -0.0342 0.0011
vn -0.3785 -0.6971 0.6090
vn -0.7893 -0.0269 0.6135
vn 0.7909 0.0275 0.6113
vn -0.5353 0.8446 0.0000
vn 0.4247 -0.6699 0.6090
vn 0.5360 -0.8442 -0.0008
vn 0.3579 0.4340 0.8267
vn -0.3867 0.4086 0.8267
vn 0.8417 0.4527 0.2944
vn 0.3579 0.4340 -0.8267
vn 0.2309 0.9378 0.2593
vn -0.5354 0.8446 0.0000
vn 0.3785 0.6973 0.6087
usemtl Material
s off
f 11/5/9 6/6/10 14/7/11
f 9/8/12 8/9/13 13/10/14
f 6/6/10 10/11/15 18/12/16
f 8/9/13 12/13/17 20/14/18
f 10/11/15 5/15/19 15/16/20
f 5/15/19 9/8/12 17/17/21
f 12/13/17 7/18/22 16/19/23
f 16/19/24 21/20/25 20/14/26
f 14/7/27 22/21/28 19/22/29
f 15/16/20 23/23/30 18/12/31
f 13/10/32 24/24/33 17/17/34
f 23/23/30 22/21/28 14/7/35
f 24/24/33 23/23/36 15/16/20
f 24/24/33 13/10/14 20/14/26
f 16/19/24 19/22/29 22/21/28
f 22/21/28 23/23/30 24/24/33
f 35/25/37 32/26/38 36/27/39
f 29/28/40 36/29/41 30/30/42
f 28/31/43 27/32/44 33/33/45
f 25/34/46 31/35/47 32/36/48
f 25/34/49 36/29/50 31/35/51
f 29/28/40 28/31/43 34/37/52
f 27/32/44 26/38/53 32/36/48
f 35/39/54 36/29/50 29/28/55
f 30/30/42 36/29/39 25/34/46
f 11/40/9 19/41/56 16/42/57
f 11/5/9 14/7/58 19/22/29
f 9/8/12 13/10/14 17/17/34
f 6/6/10 18/12/16 14/7/11
f 8/9/13 20/14/18 13/10/14
f 10/11/15 15/16/20 18/12/16
f 5/15/19 17/17/21 15/16/59
f 12/13/17 16/19/24 20/14/18
f 23/23/30 14/7/35 18/12/16
f 24/24/33 15/16/20 17/17/34
f 24/24/33 20/14/26 21/20/25
f 16/19/24 22/21/28 21/20/25
f 22/21/60 24/24/33 21/20/25
f 31/43/47 36/27/50 32/26/38
f 32/26/48 35/25/37 33/44/45
f 33/44/45 35/25/54 34/45/52
f 28/31/43 33/33/45 34/37/52
f 25/34/46 32/36/38 26/38/61
f 29/28/55 34/37/52 35/39/37
f 27/32/44 32/36/38 33/33/62
f 11/40/9 16/42/57 7/18/22
l 32 37
l 38 9
l 5 39
l 39 40
o Cube.001
v 0.475212 0.918099 -0.167417
v 0.902152 0.223643 -0.479378
v 0.147423 0.223643 -0.479378
v 0.475212 0.130199 0.113301
vt 0.000000 0.000000
vt 0.000000 0.000000
vt 0.000000 0.000000
vt 0.000000 0.000000
vn -0.7612 0.5283 -0.3762
vn -0.0374 0.9873 0.1543
vn 0.7512 0.5925 -0.2910
vn -0.0422 0.3354 0.9411
vn 0.7511 0.5926 -0.2910
vn -0.0423 0.3353 0.9412
usemtl Material
s off
f 43/46/63 41/47/64 42/48/65
f 41/47/64 44/49/66 42/48/67
f 44/49/68 41/47/64 43/46/63
o Cube.002
v -0.475212 0.734567 0.161319
v -0.147423 0.000000 -0.038681
v -0.902152 0.000000 -0.038681
v -0.475212 0.000000 0.561319
vt 0.000000 0.000000
vt 0.000000 0.000000
vt 0.000000 0.000000
vt 0.000000 0.000000
vn -0.7512 0.5399 -0.3798
vn 0.0374 0.9993 -0.0013
vn 0.7612 0.4632 -0.4539
vn 0.0374 0.9993 -0.0014
vn 0.0423 0.4778 0.8774
vn 0.7612 0.4633 -0.4539
vn 0.0422 0.4778 0.8774
vn -0.7511 0.5400 -0.3797
usemtl Material
s off
f 47/50/69 45/51/70 46/52/71
f 45/51/72 48/53/73 46/52/74
f 48/53/75 45/51/70 47/50/76
