# Blender v3.2.2 OBJ File: 'snooper.blend'
# www.blender.org
mtllib snooper_000012.mtl
o Cube.003
v -0.475212 0.806182 -0.239455
v -0.147423 0.106932 -0.540515
v -0.902152 0.106932 -0.540515
v -0.475212 0.022770 0.053553
vt 0.000000 0.000000
vt 0.000000 0.000000
vt 0.000000 0.000000
vt 0.000000 0.000000
vn -0.7512 0.5879 -0.3003
vn 0.0374 0.9896 0.1389
vn 0.7612 0.5223 -0.3844
vn 0.0374 0.9896 0.1388
vn 0.0423 0.3500 0.9358
vn 0.7612 0.5224 -0.3844
vn 0.0422 0.3500 0.9358
vn -0.7511 0.5879 -0.3002
usemtl Material.001
s off
f 3/1/1 1/2/2 2/3/3
f 1/2/4 4/4/5 2/3/6
f 4/4/7 1/2/4 3/1/8
o Cube
v 0.480624 0.555179 -0.900000
v 0.980297 0.573251 0.300000
v -0.518723 0.519035 0.900000
v -1.018396 0.500963 -0.300000
v -0.518723 0.519035 -0.900000
v 0.980297 0.573251 -0.300000
v 0.480624 0.555179 0.900000
v -1.018396 0.500963 0.300000
v -1.047312 1.300440 -0.300000
v 0.951382 1.372728 0.300000
v 0.451708 1.354656 -0.900000
v -0.547638 1.318512 0.900000
v -0.547638 1.318512 -0.900000
v 0.951382 1.372728 -0.300000
v 0.451708 1.354656 0.900000
v -1.047312 1.300440 0.300000
v -0.462335 1.726678 0.300000
v 0.337142 1.755593 0.300000
v 0.337142 1.755593 -0.300000
v -0.462335 1.726678 -0.300000
v -0.289586 0.777486 0.900000
v -0.185217 0.981391 0.900000
v 0.114587 0.992235 0.900000
v 0.232682 0.796375 0.900000
v 0.129045 0.592496 0.900000
v -0.170759 0.581653 0.900000
v -0.288853 0.777512 1.180000
v -0.185217 0.981391 1.180000
v 0.114587 0.992235 1.180000
v 0.233415 0.796402 1.180000
v 0.129045 0.592496 1.180000
v -0.170759 0.581653 1.180000
v -0.059120 0.929587 1.088129
v -0.518723 0.519035 -0.900000
v 0.480624 0.555179 -0.900000
v 0.480624 0.555179 -0.900000
vt 0.000000 0.000000
vt 0.000000 0.000000
vt 0.000000 0.000000
vt 0.000000 0.000000
vt 0.000000 0.000000
vt 0.000000 0.000000
vt 0.000000 0.000000
vt 0.000000 0.000000
vt 0.000000 0.000000
vt 0.000000 0.000000
vt 0.000000 0.000000
vt 0.000000 0.000000
vt 0.000000 0.000000
vt 0.000000 0.000000
vt 0.000000 0.000000
vt 0.000000 0.000000
vt 0.000000 0.000000
vt 0.000000 0.000000
vt 0.000000 0.000000
vt 0.000000 0.000000
vt 0.609375 0.140625
vt 0.390625 0.390625
vt 0.390625 0.140625
vt 0.000000 0.000000
vt 0.000000 0.000000
vt 0.000000 0.000000
vt 0.000000 0.000000
vt 0.000000 0.000000
vt 0.000000 0.000000
vt 0.000000 0.000000
vt 0.000000 0.000000
vt 0.000000 0.000000
vt 0.000000 0.000000
vt 0.000000 0.000000
vt 0.000000 0.000000
vt 1.000000 0.000000
vt 1.000000 1.000000
vt 0.000000 1.000000
vt 0.265625 0.265625
vt 0.609375 0.390625
vt 0.734375 0.265625
vn 0.4239 0.0153 0.9056
vn 0.9397 0.0340 0.3404
vn 0.8407 0.4544 0.2944
vn -0.4239 -0.0153 -0.9056
vn -0.9397 -0.0340 -0.3404
vn -0.8714 0.3925 -0.2944
vn 0.9397 0.0340 -0.3404
vn 0.8407 0.4544 -0.2944
vn -0.9397 -0.0340 0.3404
vn -0.8714 0.3925 0.2944
vn 0.4239 0.0154 -0.9056
vn 0.3570 0.4347 -0.8268
vn -0.3876 0.4078 -0.8267
vn -0.4239 -0.0153 0.9056
vn -0.3875 0.4078 0.8268
vn -0.2961 0.9193 0.2593
vn -0.8714 0.3924 0.2945
vn 0.8407 0.4544 0.2945
vn 0.2289 0.9383 0.2593
vn 0.3571 0.4347 0.8268
vn 0.3571 0.4347 -0.8268
vn 0.2289 0.9383 -0.2593
vn 0.8407 0.4544 -0.2945
vn -0.8714 0.3924 -0.2945
vn -0.2961 0.9193 -0.2593
vn -0.3875 0.4078 -0.8268
vn 0.2290 0.9383 -0.2593
vn -0.8713 0.3925 0.2945
vn 0.3570 0.4347 0.8268
vn 0.2290 0.9383 0.2593
vn -0.2962 0.9193 -0.2593
vn 0.4260 -0.6691 0.6090
vn -0.4266 0.6687 0.6090
vn -0.3771 -0.6978 0.6090
vn 0.5377 -0.8431 -0.0007
vn -0.3770 -0.6978 0.6090
vn -0.4747 -0.8801 0.0000
vn 0.9993 0.0367 -0.0019
vn 0.4760 0.8795 0.0000
vn 0.3770 0.6981 0.6087
vn -0.9993 -0.0361 0.0011
vn -0.7892 -0.0286 0.6135
vn -0.4265 0.6688 0.6090
vn -0.9993 -0.0362 0.0011
vn -0.7892 -0.0285 0.6135
vn 0.9993 0.0368 -0.0019
vn 0.7908 0.0291 0.6113
vn 0.4759 0.8795 -0.0000
vn -0.5370 0.8436 0.0000
vn -0.4264 0.6688 0.6090
vn 0.5377 -0.8431 -0.0008
vn 0.4239 0.0154 0.9056
vn 0.3571 0.4347 0.8267
vn -0.3876 0.4078 0.8267
vn -0.4239 -0.0154 -0.9056
vn 0.3571 0.4347 -0.8267
vn -0.8714 0.3925 0.2945
vn -0.2962 0.9193 0.2593
vn -0.4265 0.6687 0.6090
vn -0.5371 0.8435 0.0000
vn 0.3771 0.6981 0.6087
usemtl Material
s off
f 11/5/9 6/6/10 14/7/11
f 9/8/12 8/9/13 13/10/14
f 6/6/10 10/11/15 18/12/16
f 8/9/13 12/13/17 20/14/18
f 10/11/15 5/15/19 15/16/20
f 5/15/19 9/8/12 17/17/21
f 12/13/17 7/18/22 16/19/23
f 16/19/23 21/20/24 20/14/25
f 14/7/26 22/21/27 19/22/28
f 15/16/29 23/23/30 18/12/31
f 13/10/32 24/24/33 17/17/34
f 23/23/35 22/21/27 14/7/26
f 24/24/33 23/23/35 15/16/20
f 24/24/33 13/10/14 20/14/36
f 16/19/23 19/22/37 22/21/38
f 22/21/38 23/23/35 24/24/39
f 35/25/40 32/26/41 36/27/42
f 29/28/43 36/29/44 30/30/45
f 28/31/46 27/32/47 33/33/48
f 25/34/49 31/35/50 32/36/51
f 25/34/52 36/29/42 31/35/53
f 29/28/43 28/31/54 34/37/55
f 27/32/56 26/38/57 32/36/58
f 35/39/40 36/29/42 29/28/59
f 30/30/45 36/29/42 25/34/49
f 11/40/60 19/41/61 16/42/62
f 11/5/9 14/7/11 19/22/28
f 9/8/63 13/10/14 17/17/34
f 6/6/10 18/12/16 14/7/11
f 8/9/13 20/14/18 13/10/14
f 10/11/15 15/16/29 18/12/16
f 5/15/19 17/17/21 15/16/64
f 12/13/17 16/19/23 20/14/18
f 23/23/35 14/7/26 18/12/16
f 24/24/33 15/16/29 17/17/34
f 24/24/33 20/14/65 21/20/24
f 16/19/23 22/21/38 21/20/66
f 22/21/38 24/24/33 21/20/24
f 31/43/50 36/27/42 32/26/67
f 32/26/51 35/25/40 33/44/48
f 33/44/48 35/25/40 34/45/55
f 28/31/54 33/33/48 34/37/55
f 25/34/52 32/36/67 26/38/68
f 29/28/59 34/37/55 35/39/40
f 27/32/56 32/36/51 33/33/69
f 11/40/60 16/42/62 7/18/22
l 32 37
l 38 9
l 5 39
l 39 40
o Cube.001
v 0.475212 0.734567 0.310356
v 0.902152 0.000000 0.110356
v 0.147423 0.000000 0.110356
v 0.475212 0.000000 0.710356
vt 0.000000 0.000000
vt 0.000000 0.000000
vt 0.000000 0.000000
vt 0.000000 0.000000
vn -0.7612 0.4632 -0.4539
vn -0.0374 0.9993 -0.0013
vn 0.7512 0.5399 -0.3798
vn -0.0422 0.4778 0.8774
vn 0.7511 0.5400 -0.3797
vn -0.0423 0.4778 0.8774
vn -0.0374 0.9993 -0.0014
vn -0.7612 0.4633 -0.4539
usemtl Material
s off
f 43/46/70 41/47/71 42/48/72
f 41/47/71 44/49/73 42/48/74
f 44/49/75 41/47/76 43/46/77
o Cube.002
v -0.475212 0.806182 -0.239455
v -0.147423 0.106932 -0.540515
v -0.902152 0.106932 -0.540515
v -0.475212 0.022770 0.053553
vt 0.000000 0.000000
vt 0.000000 0.000000
vt 0.000000 0.000000
vt 0.000000 0.000000
vn -0.7512 0.5879 -0.3003
vn 0.0374 0.9896 0.1389
vn 0.7612 0.5223 -0.3844
vn 0.0374 0.9896 0.1388
vn 0.0423 0.3500 0.9358
vn 0.7612 0.5224 -0.3844
vn 0.0422 0.3500 0.9358
vn -0.7511 0.5879 -0.3002
usemtl Material
s off
f 47/50/78 45/51/79 46/52/80
f 45/51/81 48/53/82 46/52/83
f 48/53/84 45/51/81 47/50/85
