# Blender v3.2.2 OBJ File: 'snooper.blend'
# www.blender.org
mtllib snooper_000014.mtl
o Cube.003
v -0.475212 0.918099 -0.167417
v -0.147423 0.223643 -0.479378
v -0.902152 0.223643 -0.479378
v -0.475212 0.130199 0.113301
vt 0.000000 0.000000
vt 0.000000 0.000000
vt 0.000000 0.000000
vt 0.000000 0.000000
vn -0.7512 0.5925 -0.2910
vn 0.0374 0.9873 0.1543
vn 0.7612 0.5283 -0.3762
vn 0.0423 0.3353 0.9412
vn 0.0422 0.3354 0.9411
vn -0.7511 0.5926 -0.2910
usemtl Material.001
s off
f 3/1/1 1/2/2 2/3/3
f 1/2/2 4/4/4 2/3/3
f 4/4/5 1/2/2 3/1/6
o Cube
v 0.518726 0.519032 -0.900000
v 1.018399 0.500957 0.300000
v -0.480620 0.555182 0.900000
v -0.980294 0.573257 -0.300000
v -0.480620 0.555182 -0.900000
v 1.018399 0.500957 -0.300000
v 0.518726 0.519032 0.900000
v -0.980294 0.573257 0.300000
v -0.951374 1.372734 -0.300000
v 1.047319 1.300434 0.300000
v 0.547646 1.318509 -0.900000
v -0.451700 1.354659 0.900000
v -0.451700 1.354659 -0.900000
v 1.047319 1.300434 -0.300000
v 0.547646 1.318509 0.900000
v -0.951374 1.372734 0.300000
v -0.337132 1.755595 0.300000
v 0.462345 1.726675 0.300000
v 0.462345 1.726675 -0.300000
v -0.337132 1.755595 -0.300000
v -0.233410 0.796403 0.900000
v -0.114582 0.992235 0.900000
v 0.185222 0.981390 0.900000
v 0.288858 0.777511 0.900000
v 0.170762 0.581652 0.900000
v -0.129042 0.592497 0.900000
v -0.232677 0.796376 1.180000
v -0.114582 0.992235 1.180000
v 0.185222 0.981390 1.180000
v 0.289591 0.777484 1.180000
v 0.170762 0.581652 1.180000
v -0.129042 0.592497 1.180000
v 0.007442 0.931456 1.088129
v -0.480620 0.555182 -0.900000
v 0.518726 0.519032 -0.900000
v 0.518726 0.519032 -0.900000
vt 0.000000 0.000000
vt 0.000000 0.000000
vt 0.000000 0.000000
vt 0.000000 0.000000
vt 0.000000 0.000000
vt 0.000000 0.000000
vt 0.000000 0.000000
vt 0.000000 0.000000
vt 0.000000 0.000000
vt 0.000000 0.000000
vt 0.000000 0.000000
vt 0.000000 0.000000
vt 0.000000 0.000000
vt 0.000000 0.000000
vt 0.000000 0.000000
vt 0.000000 0.000000
vt 0.000000 0.000000
vt 0.000000 0.000000
vt 0.000000 0.000000
vt 0.000000 0.000000
vt 0.609375 0.140625
vt 0.390625 0.390625
vt 0.390625 0.140625
vt 0.000000 0.000000
vt 0.000000 0.000000
vt 0.000000 0.000000
vt 0.000000 0.000000
vt 0.000000 0.000000
vt 0.000000 0.000000
vt 0.000000 0.000000
vt 0.000000 0.000000
vt 0.000000 0.000000
vt 0.000000 0.000000
vt 0.000000 0.000000
vt 0.000000 0.000000
vt 1.000000 0.000000
vt 1.000000 1.000000
vt 0.000000 1.000000
vt 0.265625 0.265625
vt 0.609375 0.390625
vt 0.734375 0.265625
vn 0.4239 -0.0153 0.9056
vn 0.9397 -0.0340 0.3404
vn 0.8714 0.3925 0.2944
vn -0.4239 0.0153 -0.9056
vn -0.9397 0.0340 -0.3404
vn -0.8407 0.4544 -0.2944
vn 0.9397 -0.0340 -0.3404
vn 0.8714 0.3925 -0.2944
vn -0.9397 0.0340 0.3404
vn -0.8407 0.4544 0.2944
vn 0.4239 -0.0153 -0.9056
vn 0.3875 0.4078 -0.8268
vn -0.4239 0.0154 -0.9056
vn -0.3571 0.4347 -0.8267
vn -0.4239 0.0154 0.9056
vn -0.3570 0.4347 0.8268
vn -0.3571 0.4347 0.8268
vn -0.2289 0.9383 0.2593
vn -0.8407 0.4544 0.2945
vn 0.8714 0.3924 0.2945
vn 0.2961 0.9193 0.2593
vn 0.3875 0.4078 0.8268
vn 0.2961 0.9193 -0.2593
vn 0.8714 0.3924 -0.2945
vn -0.8407 0.4544 -0.2945
vn -0.2289 0.9383 -0.2593
vn -0.3571 0.4347 -0.8268
vn 0.2962 0.9193 -0.2593
vn 0.8714 0.3925 0.2945
vn -0.2290 0.9383 -0.2593
vn 0.2962 0.9193 0.2593
vn 0.3765 -0.6982 0.6090
vn -0.3771 0.6978 0.6090
vn -0.4265 -0.6687 0.6090
vn 0.4754 -0.8798 -0.0007
vn -0.4264 -0.6688 0.6090
vn -0.5370 -0.8436 0.0000
vn 0.9994 -0.0356 -0.0019
vn 0.5382 0.8428 0.0000
vn 0.4265 0.6690 0.6087
vn -0.9993 0.0362 0.0011
vn -0.7892 0.0285 0.6135
vn -0.3770 0.6978 0.6090
vn -0.9993 0.0361 0.0011
vn -0.4265 -0.6688 0.6090
vn -0.7892 0.0286 0.6135
vn 0.9994 -0.0355 -0.0019
vn 0.7909 -0.0281 0.6113
vn -0.4747 0.8802 0.0000
vn 0.3766 -0.6981 0.6090
vn 0.4754 -0.8798 -0.0008
vn -0.5371 -0.8435 0.0000
vn 0.3875 0.4078 0.8267
vn -0.3571 0.4347 0.8267
vn 0.4239 -0.0154 0.9056
vn 0.3875 0.4078 -0.8267
vn 0.8713 0.3925 0.2945
vn -0.3570 0.4347 -0.8268
vn -0.2290 0.9383 0.2593
vn 0.3765 -0.6981 0.6090
vn 0.7909 -0.0282 0.6113
vn -0.4747 0.8801 0.0000
usemtl Material
s off
f 11/5/7 6/6/8 14/7/9
f 9/8/10 8/9/11 13/10/12
f 6/6/8 10/11/13 18/12/14
f 8/9/11 12/13/15 20/14/16
f 10/11/13 5/15/17 15/16/18
f 5/15/17 9/8/19 17/17/20
f 12/13/15 7/18/21 16/19/22
f 16/19/23 21/20/24 20/14/25
f 14/7/26 22/21/27 19/22/28
f 15/16/18 23/23/29 18/12/30
f 13/10/31 24/24/32 17/17/33
f 23/23/34 22/21/27 14/7/35
f 24/24/36 23/23/34 15/16/18
f 24/24/32 13/10/12 20/14/25
f 16/19/22 19/22/28 22/21/27
f 22/21/37 23/23/34 24/24/36
f 35/25/38 32/26/39 36/27/40
f 29/28/41 36/29/42 30/30/43
f 28/31/44 27/32/45 33/33/46
f 25/34/47 31/35/48 32/36/49
f 25/34/50 36/29/51 31/35/52
f 29/28/41 28/31/53 34/37/54
f 27/32/45 26/38/55 32/36/49
f 35/39/56 36/29/51 29/28/57
f 30/30/58 36/29/40 25/34/47
f 11/40/7 19/41/59 16/42/60
f 11/5/61 14/7/9 19/22/28
f 9/8/10 13/10/12 17/17/33
f 6/6/8 18/12/14 14/7/9
f 8/9/11 20/14/16 13/10/12
f 10/11/13 15/16/18 18/12/14
f 5/15/17 17/17/20 15/16/62
f 12/13/15 16/19/23 20/14/16
f 23/23/29 14/7/63 18/12/14
f 24/24/32 15/16/18 17/17/64
f 24/24/36 20/14/25 21/20/24
f 16/19/22 22/21/27 21/20/65
f 22/21/37 24/24/36 21/20/65
f 31/43/48 36/27/40 32/26/39
f 32/26/39 35/25/66 33/44/46
f 33/44/46 35/25/56 34/45/67
f 28/31/53 33/33/46 34/37/54
f 25/34/50 32/36/39 26/38/68
f 29/28/57 34/37/67 35/39/38
f 27/32/45 32/36/39 33/33/46
f 11/40/7 16/42/60 7/18/21
l 32 37
l 38 9
l 5 39
l 39 40
o Cube.001
v 0.475212 0.734567 0.198971
v 0.902152 0.000000 -0.001029
v 0.147423 0.000000 -0.001029
v 0.475212 0.000000 0.598971
vt 0.000000 0.000000
vt 0.000000 0.000000
vt 0.000000 0.000000
vt 0.000000 0.000000
vn -0.7612 0.4632 -0.4539
vn -0.0374 0.9993 -0.0013
vn 0.7512 0.5399 -0.3798
vn -0.0422 0.4778 0.8774
vn 0.7511 0.5400 -0.3797
vn -0.0423 0.4778 0.8774
vn -0.0374 0.9993 -0.0014
vn -0.7612 0.4633 -0.4539
usemtl Material
s off
f 43/46/69 41/47/70 42/48/71
f 41/47/70 44/49/72 42/48/73
f 44/49/74 41/47/75 43/46/76
o Cube.002
v -0.475212 0.918099 -0.167417
v -0.147423 0.223643 -0.479378
v -0.902152 0.223643 -0.479378
v -0.475212 0.130199 0.113301
vt 0.000000 0.000000
vt 0.000000 0.000000
vt 0.000000 0.000000
vt 0.000000 0.000000
vn -0.7512 0.5925 -0.2910
vn 0.0374 0.9873 0.1543
vn 0.7612 0.5283 -0.3762
vn 0.0423 0.3353 0.9412
vn 0.0422 0.3354 0.9411
vn -0.7511 0.5926 -0.2910
usemtl Material
s off
f 47/50/77 45/51/78 46/52/79
f 45/51/78 48/53/80 46/52/79
f 48/53/81 45/51/78 47/50/82
