# Blender v3.2.2 OBJ File: 'spooker.blend'
# www.blender.org
mtllib spooker.mtl
o Cube_Cube.001
v 0.391716 0.000000 0.416355
v -0.416116 0.000000 -0.391477
v -0.416116 0.000000 0.416355
v 0.391716 0.000000 -0.391477
v 0.559023 0.000000 0.012439
v -0.012200 0.000000 -0.558784
v -0.583423 0.000000 0.012439
v -0.012200 0.000000 0.583662
v -0.612722 0.346604 -0.236305
v -0.612721 0.346604 0.261183
v 0.236545 0.346604 0.612961
v -0.260944 0.346604 0.612961
v 0.588322 0.346604 0.261183
v 0.588322 0.346604 -0.236305
v 0.236544 0.346604 -0.588083
v -0.260944 0.346604 -0.588083
v 0.392549 0.863789 0.417623
v 0.560332 0.863789 0.012557
v 0.392548 0.863789 -0.392509
v -0.012517 0.863789 -0.560292
v -0.417583 0.863789 -0.392508
v -0.585367 0.863789 0.012557
v -0.417583 0.863789 0.417623
v -0.012517 0.863789 0.585407
v 0.345372 1.058163 0.017319
v -0.395992 1.058163 0.017319
v -0.025310 1.058163 0.388002
v -0.025310 1.058163 -0.353363
vt 0.518721 0.734299
vt 1.001035 0.000986
vt 1.002265 0.993912
vt 0.001803 0.994835
vt 0.001803 0.994835
vt 0.001803 0.994835
vt 0.001803 0.994835
vt 0.001803 0.994835
vt 0.001803 0.994835
vt 0.001803 0.994835
vt 0.001803 0.994835
vt 0.001803 0.994835
vt 0.001803 0.994835
vt 0.001803 0.994835
vt 0.001803 0.994835
vt 0.001803 0.994835
vt 0.001803 0.994835
vt 0.001803 0.994835
vt 0.001803 0.994835
vt 0.524873 0.996373
vt 0.001803 0.994835
vt 0.001803 0.994835
vt 0.001803 0.994835
vt 0.001803 0.994835
vt 0.001803 0.994835
vt 0.001803 0.994835
vt 0.004418 0.002216
vt 0.001803 0.994835
vt 0.001803 0.994835
vt 0.001803 0.994835
vt 0.001803 0.994835
vt 0.001803 0.994835
vn 0.0029 0.4435 0.8963
vn 0.3826 0.0301 0.9234
vn 0.6170 0.4908 0.6152
vn 0.7046 -0.0842 0.7046
vn 0.9235 0.0304 0.3825
vn 0.9964 -0.0842 -0.0000
vn 0.9235 0.0305 -0.3825
vn 0.7046 -0.0842 -0.7046
vn 0.3826 0.0304 -0.9234
vn -0.0000 -0.0842 -0.9964
vn -0.3824 0.0301 -0.9235
vn -0.7046 -0.0842 -0.7046
vn -0.9234 0.0298 -0.3826
vn -0.9964 -0.0842 0.0000
vn -0.9235 0.0297 0.3825
vn -0.7046 -0.0842 0.7046
vn -0.3825 0.0298 0.9235
vn 0.0000 -0.0842 0.9964
vn -0.0089 0.8990 0.4378
vn -0.9002 0.4354 -0.0011
vn -0.6205 0.4784 0.6214
vn 0.0027 0.4526 -0.8917
vn -0.6181 0.4832 -0.6201
vn 0.8881 0.4597 -0.0010
vn 0.6148 0.4951 -0.6140
vn -0.4481 0.8940 0.0034
vn 0.4159 0.9094 0.0031
vn -0.0086 0.9048 -0.4258
usemtl Material.001
s 1
f 24/1/1 11/2/2 17/3/3
f 1/4/4 13/5/5 11/6/2
f 5/7/6 14/8/7 13/5/5
f 4/9/8 15/10/9 14/8/7
f 6/11/10 16/12/11 15/10/9
f 2/13/12 9/14/13 16/12/11
f 7/15/14 10/16/15 9/14/13
f 3/17/16 12/18/17 10/16/15
f 8/19/18 11/6/2 12/18/17
f 24/1/1 17/3/3 27/20/19
f 22/21/20 10/16/15 23/22/21
f 20/23/22 16/12/11 21/24/23
f 18/25/24 14/8/7 19/26/25
f 12/27/17 24/1/1 23/22/21
f 9/14/13 22/21/20 21/24/23
f 15/10/9 20/23/22 19/26/25
f 13/5/5 18/25/24 17/28/3
f 11/2/2 24/1/1 12/27/17
f 10/16/15 22/21/20 9/14/13
f 16/12/11 20/23/22 15/10/9
f 14/8/7 18/25/24 13/5/5
f 12/18/17 23/22/21 10/16/15
f 9/14/13 21/24/23 16/12/11
f 15/10/9 19/26/25 14/8/7
f 13/5/5 17/28/3 11/6/2
f 22/21/20 23/22/21 26/29/26
f 18/25/24 19/26/25 25/30/27
f 21/24/23 28/31/28 20/23/22
f 17/28/3 25/30/27 27/32/19
f 23/22/21 27/32/19 26/29/26
f 21/24/23 26/29/26 28/31/28
f 27/32/19 25/30/27 28/31/28
f 28/31/28 19/26/25 20/23/22
f 18/25/24 25/30/27 17/28/3
f 25/30/27 19/26/25 28/31/28
f 22/21/20 26/29/26 21/24/23
f 24/1/1 27/20/19 23/22/21
f 27/32/19 28/31/28 26/29/26
